<svg xmlns="http://www.w3.org/2000/svg" viewBox="0 0 293.11 250.68"><defs><style>.cls-1{fill:#fff;}.cls-2{fill:#010103;}</style></defs><g id="Calque_2" data-name="Calque 2"><g id="Calque_3" data-name="Calque 3"><path class="cls-1" d="M292.55,157.19c0,30.94-36.65,56-81.86,56a116.63,116.63,0,0,1-23.78-2.41c-17-3.52-31.71-10.76-42-20.31-6.94-6.42-11.92-13.88-14.35-22a39.26,39.26,0,0,1-1.62-9.22q-.06-1-.06-2.1H163a23,23,0,0,0,.24,3.33,24.12,24.12,0,0,0,1.33,5c2.29,6,7,11.27,13.33,15.39a57.53,57.53,0,0,0,23.39,8.32,69.57,69.57,0,0,0,9.46.64c26.37,0,47.75-14.63,47.75-32.68,0-17.74-15.79-32.26-46.17-32.67H211l-2.09,0c-1.22,0-2.41,0-3.6-.09-.66,0-1.3-.05-1.95-.09-17.81-.92-32.88-5.07-44.66-11.5-.58-.31-1.14-.63-1.7-1a68.34,68.34,0,0,1-5.85-3.79,60.51,60.51,0,0,1-5.61-4.56c-.68-.62-1.34-1.26-2-1.91a52.66,52.66,0,0,1-5.32-6.26,48.6,48.6,0,0,1-3.84-6.25,44.9,44.9,0,0,1-5-20.61,39.08,39.08,0,0,1,.35-5.21,41.9,41.9,0,0,1,5-14.72l34.94.08V20.22a102,102,0,0,1,16.6-5.11,116.75,116.75,0,0,1,25-2.66c45.21,0,81.86,25.08,81.86,56H259a21.8,21.8,0,0,0-.25-3.34c-2.44-16.49-22.78-29.35-47.5-29.35-1.57,0-3.13.05-4.66.16-17.84,1.18-32.82,9.09-39.44,20a24,24,0,0,0-3.65,12.56,27.5,27.5,0,0,0,7.31,18.86,36.36,36.36,0,0,0,11.75,8.39,54.86,54.86,0,0,0,12.51,4c1.37.27,2.79.51,4.25.71.74.09,1.49.19,2.26.27a90.86,90.86,0,0,0,9.43.47c1.2,0,2.39,0,3.56,0,25.78.53,45,6.7,57.92,16.4C286,127.74,292.55,141.74,292.55,157.19Z"/><polygon class="cls-1" points="167.22 12.52 167.22 45.97 100.33 45.97 100.33 213.14 66.89 213.14 66.89 45.97 0 45.97 0 12.52 167.22 12.52"/><path class="cls-2" d="M98.57,97.16a2,2,0,0,0,1.63,2.08l.14,0V93.35A4.88,4.88,0,0,0,98.57,97.16Zm39.27-5.41a4.44,4.44,0,0,0-3.48-2.66,48.6,48.6,0,0,0,3.84,6.25c0-.14.06-.29.08-.43A5.62,5.62,0,0,0,137.84,91.75Zm32.93-4.41-.73.06c-2.11.19-4.22.35-6.33.58a10,10,0,0,0-3.22.69,3.07,3.07,0,0,0-1.85,2.73,6.34,6.34,0,0,0,.9,4,2.94,2.94,0,0,0,2.13,1.5,21,21,0,0,0,5.13.12c.36,0,.72,0,1.08-.06,0,.07,0,.14.07.21-.59.39-1.2.76-1.77,1.17s-1.23.88-1.81,1.36-1.1,1-1.61,1.48-1,1-1.48,1.58a.77.77,0,0,1-.28,0,20.27,20.27,0,0,0-7.34-2,24.85,24.85,0,0,0-10.14.9c.65.65,1.31,1.29,2,1.91A27.56,27.56,0,0,1,151,103a19.59,19.59,0,0,1,8.78,1.89c-.2.38-.35.68-.52,1a20.82,20.82,0,0,0-2.26,6c.56.32,1.12.64,1.7,1a18.67,18.67,0,0,1,6.13-11,22.81,22.81,0,0,1,12.11-5.74,26.59,26.59,0,0,1,5.61-.33A36.36,36.36,0,0,1,170.77,87.34Zm-32.93,4.41a4.44,4.44,0,0,0-3.48-2.66,48.6,48.6,0,0,0,3.84,6.25c0-.14.06-.29.08-.43A5.62,5.62,0,0,0,137.84,91.75Zm32.93-4.41-.73.06c-2.11.19-4.22.35-6.33.58a10,10,0,0,0-3.22.69,3.07,3.07,0,0,0-1.85,2.73,6.34,6.34,0,0,0,.9,4,2.94,2.94,0,0,0,2.13,1.5,21,21,0,0,0,5.13.12c.36,0,.72,0,1.08-.06,0,.07,0,.14.07.21-.59.39-1.2.76-1.77,1.17s-1.23.88-1.81,1.36-1.1,1-1.61,1.48-1,1-1.48,1.58a.77.77,0,0,1-.28,0,20.27,20.27,0,0,0-7.34-2,24.85,24.85,0,0,0-10.14.9c.65.65,1.31,1.29,2,1.91A27.56,27.56,0,0,1,151,103a19.59,19.59,0,0,1,8.78,1.89c-.2.38-.35.68-.52,1a20.82,20.82,0,0,0-2.26,6c.56.32,1.12.64,1.7,1a18.67,18.67,0,0,1,6.13-11,22.81,22.81,0,0,1,12.11-5.74,26.59,26.59,0,0,1,5.61-.33A36.36,36.36,0,0,1,170.77,87.34Zm-32.93,4.41a4.44,4.44,0,0,0-3.48-2.66,48.6,48.6,0,0,0,3.84,6.25c0-.14.06-.29.08-.43A5.62,5.62,0,0,0,137.84,91.75Zm32.93-4.41-.73.06c-2.11.19-4.22.35-6.33.58a10,10,0,0,0-3.22.69,3.07,3.07,0,0,0-1.85,2.73,6.34,6.34,0,0,0,.9,4,2.94,2.94,0,0,0,2.13,1.5,21,21,0,0,0,5.13.12c.36,0,.72,0,1.08-.06,0,.07,0,.14.07.21-.59.39-1.2.76-1.77,1.17s-1.23.88-1.81,1.36-1.1,1-1.61,1.48-1,1-1.48,1.58a.77.77,0,0,1-.28,0,20.27,20.27,0,0,0-7.34-2,24.85,24.85,0,0,0-10.14.9c.65.65,1.31,1.29,2,1.91A27.56,27.56,0,0,1,151,103a19.59,19.59,0,0,1,8.78,1.89c-.2.38-.35.68-.52,1a20.82,20.82,0,0,0-2.26,6c.56.32,1.12.64,1.7,1a18.67,18.67,0,0,1,6.13-11,22.81,22.81,0,0,1,12.11-5.74,26.59,26.59,0,0,1,5.61-.33A36.36,36.36,0,0,1,170.77,87.34ZM205.62,34A42.87,42.87,0,0,0,195.56,21a28.77,28.77,0,0,0-8.17-5.28,5.22,5.22,0,0,1-1.14-.63,102,102,0,0,0-16.6,5.11V48.63l-34.94-.08a41.9,41.9,0,0,0-5,14.72A81.29,81.29,0,0,0,137.91,62a69.26,69.26,0,0,0,14.2-4.94c1.62-.71,3.28-1.34,4.9-2.06a8.06,8.06,0,0,1,4.61-.39,30.73,30.73,0,0,1,5.49,1.32c6.62-10.88,21.6-18.79,39.44-20C206.26,35.28,205.94,34.61,205.62,34ZM170.77,87.34l-.73.06c-2.11.19-4.22.35-6.33.58a10,10,0,0,0-3.22.69,3.07,3.07,0,0,0-1.85,2.73,6.34,6.34,0,0,0,.9,4,2.94,2.94,0,0,0,2.13,1.5,21,21,0,0,0,5.13.12c.36,0,.72,0,1.08-.06,0,.07,0,.14.07.21-.59.39-1.2.76-1.77,1.17s-1.23.88-1.81,1.36-1.1,1-1.61,1.48-1,1-1.48,1.58a.77.77,0,0,1-.28,0,20.27,20.27,0,0,0-7.34-2,24.85,24.85,0,0,0-10.14.9c.65.65,1.31,1.29,2,1.91A27.56,27.56,0,0,1,151,103a19.59,19.59,0,0,1,8.78,1.89c-.2.38-.35.68-.52,1a20.82,20.82,0,0,0-2.26,6c.56.32,1.12.64,1.7,1a18.67,18.67,0,0,1,6.13-11,22.81,22.81,0,0,1,12.11-5.74,26.59,26.59,0,0,1,5.61-.33A36.36,36.36,0,0,1,170.77,87.34Zm-32.93,4.41a4.44,4.44,0,0,0-3.48-2.66,48.6,48.6,0,0,0,3.84,6.25c0-.14.06-.29.08-.43A5.62,5.62,0,0,0,137.84,91.75Zm32.93-4.41-.73.06c-2.11.19-4.22.35-6.33.58a10,10,0,0,0-3.22.69,3.07,3.07,0,0,0-1.85,2.73,6.34,6.34,0,0,0,.9,4,2.94,2.94,0,0,0,2.13,1.5,21,21,0,0,0,5.13.12c.36,0,.72,0,1.08-.06,0,.07,0,.14.07.21-.59.39-1.2.76-1.77,1.17s-1.23.88-1.81,1.36-1.1,1-1.61,1.48-1,1-1.48,1.58a.77.77,0,0,1-.28,0,20.27,20.27,0,0,0-7.34-2,24.85,24.85,0,0,0-10.14.9c.65.65,1.31,1.29,2,1.91A27.56,27.56,0,0,1,151,103a19.59,19.59,0,0,1,8.78,1.89c-.2.38-.35.68-.52,1a20.82,20.82,0,0,0-2.26,6c.56.32,1.12.64,1.7,1a18.67,18.67,0,0,1,6.13-11,22.81,22.81,0,0,1,12.11-5.74,26.59,26.59,0,0,1,5.61-.33A36.36,36.36,0,0,1,170.77,87.34Zm-32.93,4.41a4.44,4.44,0,0,0-3.48-2.66,48.6,48.6,0,0,0,3.84,6.25c0-.14.06-.29.08-.43A5.62,5.62,0,0,0,137.84,91.75ZM98.57,97.16a2,2,0,0,0,1.63,2.08l.14,0V93.35A4.88,4.88,0,0,0,98.57,97.16Zm39.27-5.41a4.44,4.44,0,0,0-3.48-2.66,48.6,48.6,0,0,0,3.84,6.25c0-.14.06-.29.08-.43A5.62,5.62,0,0,0,137.84,91.75Zm25.38,68.77a23,23,0,0,1-.24-3.33H133.14q-2.14,1-4.25,2.1a39.26,39.26,0,0,0,1.62,9.22,47.58,47.58,0,0,1,8.79-4,14.16,14.16,0,0,1,4.36-.79,9.79,9.79,0,0,1,2.42.22,12.71,12.71,0,0,0,6.13-.09c.93-.22,1.87-.4,2.8-.62a8.61,8.61,0,0,1,3.71.22,29.46,29.46,0,0,1,5.83,2.12A24.12,24.12,0,0,1,163.22,160.52Zm14.66,20.39c0,.65,0,1.3-.08,2a31,31,0,0,1-3.51,11.79,16,16,0,0,1-2.53,3.64,6.25,6.25,0,0,1-3.52,1.77,13.57,13.57,0,0,1-5.12,0,4.51,4.51,0,0,1-3.45-2.52,14.86,14.86,0,0,1-1.43-5.61c-.13-1.72-.16-3.43-.24-5.42.06-1.24.13-2.75.2-4.26,0-.32,0-.64,0-1,0-.65-.38-.94-1-.81-1.19.25-2.37.57-3.56.81a17.24,17.24,0,0,1-5.46.2,15.83,15.83,0,0,0-2.18-.06c-.72,0-1,.36-1.09,1.09a4.4,4.4,0,0,0,0,1,31.36,31.36,0,0,1,0,7.05c10.34,9.55,25,16.79,42,20.31a54.39,54.39,0,0,0,8.11-9.67,77.72,77.72,0,0,0,6.25-11.91A57.53,57.53,0,0,1,177.88,180.91ZM211,101.15a90.86,90.86,0,0,1-9.43-.47c0,.7.06,1.41.08,2.13a5.31,5.31,0,0,1-.58-.42,8.6,8.6,0,0,1-1.62-1.69c0-.1-.1-.19-.14-.29-1.46-.2-2.88-.44-4.25-.71a22.28,22.28,0,0,1,6.44,6.22,18.71,18.71,0,0,1,3.42,12,18.18,18.18,0,0,1-1.56,6.37c.65,0,1.29.07,1.95.09a21.74,21.74,0,0,0,1.28-4.67c.13-.75.19-1.5.28-2.24,0,0,0,0,.15-.11a7.29,7.29,0,0,1,.37.74,29.85,29.85,0,0,1,1.52,6.37l2.09,0h1.34c-.05-.72-.1-1.44-.13-2.17a39.72,39.72,0,0,1,.36-7.39c.29-2,.52-4,.81-6,.38-2.61.77-5.2,1.18-7.81C213.36,101.17,212.17,101.15,211,101.15Zm-40.2-13.81-.73.06c-2.11.19-4.22.35-6.33.58a10,10,0,0,0-3.22.69,3.07,3.07,0,0,0-1.85,2.73,6.34,6.34,0,0,0,.9,4,2.94,2.94,0,0,0,2.13,1.5,21,21,0,0,0,5.13.12c.36,0,.72,0,1.08-.06,0,.07,0,.14.07.21-.59.39-1.2.76-1.77,1.17s-1.23.88-1.81,1.36-1.1,1-1.61,1.48-1,1-1.48,1.58a.77.77,0,0,1-.28,0,20.27,20.27,0,0,0-7.34-2,24.85,24.85,0,0,0-10.14.9c.65.65,1.31,1.29,2,1.91A27.56,27.56,0,0,1,151,103a19.59,19.59,0,0,1,8.78,1.89c-.2.38-.35.68-.52,1a20.82,20.82,0,0,0-2.26,6c.56.32,1.12.64,1.7,1a18.67,18.67,0,0,1,6.13-11,22.81,22.81,0,0,1,12.11-5.74,26.59,26.59,0,0,1,5.61-.33A36.36,36.36,0,0,1,170.77,87.34Zm-69.7-74.82c-.42.8-.8,1.62-1.25,2.4A50.68,50.68,0,0,1,97,19.43c-1.83,2.48-3.78,4.88-5.7,7.29-5.46,6.83-10.12,14.1-12.91,22.49a66.12,66.12,0,0,0-3.56,20.08,75.1,75.1,0,0,0,.33,10.28c.23,1.82.43,3.64.64,5.45.31,2.6.69,5.19.9,7.79.27,3.28.39,6.56.59,9.84,0,1,.18,2,.19,3,0,3.08.07,6.16.09,9.24a.84.84,0,0,1-.4.81,4,4,0,0,0-1.81,3.48,28.2,28.2,0,0,0,.79,7.87A81.84,81.84,0,0,0,83,146.15a9.4,9.4,0,0,1,1.46,4.94s0,0,0,.08q.5,3.68,1,7.34A62.09,62.09,0,0,0,87,167.08c.94,3.53,2,7,2.95,10.56a67.42,67.42,0,0,0,10.06,21.53l.29.39V171.74c-1.14-2.41-2.31-4.81-3.37-7.26s-1.92-4.86-2.92-7.27c-2.07-5-3.79-10.06-5.49-15.16a50.78,50.78,0,0,1-1.71-7.9A66.73,66.73,0,0,1,85.92,123a18.26,18.26,0,0,1,.67-4.82,55.13,55.13,0,0,1,3-8.83,3.12,3.12,0,0,1,2.8-1.81l2.44,0c.28,0,.56,0,1,.06-.18.45-.29.8-.44,1.14a19.84,19.84,0,0,0-1.75,9.51,20.45,20.45,0,0,0,5.87,13.18c.3.31.6.6.91.89V129.8a19.68,19.68,0,0,1-3.45-5.41,17.83,17.83,0,0,1-.19-14.09,20.87,20.87,0,0,1,3.64-6v-2.64a21.82,21.82,0,0,0-3,3.48,1.24,1.24,0,0,1-1.22.63c-1.08-.07-2.15-.07-3.23-.12a.91.91,0,0,1-.52-.23c-.41-.36-.76-.79-1.18-1.13a.82.82,0,0,1-.35-.89c.3-2,.59-4,.88-6,.43-2.93.91-5.85,1.27-8.79.27-2.17.39-4.35.57-6.52a53,53,0,0,1,2.84-13.69,10.12,10.12,0,0,1,3.89-5.06V46h66.88V12.52ZM83.54,141.76l-.18.07c-.17-.28-.37-.55-.52-.85A53.37,53.37,0,0,1,79,130.92a56,56,0,0,1-1.68-8,9.15,9.15,0,0,1,.07-3.38,2,2,0,0,1,.05-.26c.21-.58.43-1.18,1.1-1.37s1.15.29,1.56.75c.27.3.5.63.76,1a3.7,3.7,0,0,1,.69,2.19c.16,3.07.33,6.15.65,9.21.37,3.4.92,6.79,1.38,10.18A5.23,5.23,0,0,1,83.54,141.76ZM163,157.19H133.14q-2.14,1-4.25,2.1a39.26,39.26,0,0,0,1.62,9.22,47.58,47.58,0,0,1,8.79-4,14.16,14.16,0,0,1,4.36-.79,9.79,9.79,0,0,1,2.42.22,12.71,12.71,0,0,0,6.13-.09c.93-.22,1.87-.4,2.8-.62a8.61,8.61,0,0,1,3.71.22,29.46,29.46,0,0,1,5.83,2.12,24.12,24.12,0,0,1-1.33-5A23,23,0,0,1,163,157.19Z"/><path class="cls-1" d="M205.28,124.4a20.82,20.82,0,0,1-4.43,6.77,25.09,25.09,0,0,1-15.75,7.48,26.37,26.37,0,0,1-8.85-.49,25.76,25.76,0,0,1-14.63-8.72,20.85,20.85,0,0,1-5-14.32,18.39,18.39,0,0,1,.38-3.26c.56.32,1.12.64,1.7,1a18,18,0,0,0-.22,2,18.47,18.47,0,0,0,4.15,12.92c5,6.28,11.7,9,20,9.3,1.22-.13,2.82-.22,4.38-.5a22.72,22.72,0,0,0,12.54-6.57,19.29,19.29,0,0,0,3.85-5.62C204,124.35,204.62,124.38,205.28,124.4Z"/><path class="cls-1" d="M212.72,132.8c-.19,2.56-.4,5.9-.7,9.23-.25,2.86-.51,5.73-.93,8.57-.55,3.74-1.21,7.46-1.92,11.16a191.66,191.66,0,0,1-5,19.57,83.58,83.58,0,0,1-2.87,7.9,57.53,57.53,0,0,1-23.39-8.32c0-1.47,0-2.94-.06-4.41a6.15,6.15,0,0,0-.22-1.47,6.08,6.08,0,0,0-2.49-3.66,64.32,64.32,0,0,0-10.43-5.79l-.13-.06a24.12,24.12,0,0,1-1.33-5,23,23,0,0,1-.24-3.33H133.14c1.5-.71,3-1.4,4.53-2.07a12,12,0,0,1,4.48-1,10.57,10.57,0,0,1,3.49.64,8.53,8.53,0,0,0,5.64-.18,31.32,31.32,0,0,1,3.15-1,16.3,16.3,0,0,1,7.25-.45,18,18,0,0,1,4.66,1.64,72.42,72.42,0,0,1,7.87,4.67,46.57,46.57,0,0,1,9.51,8,8.75,8.75,0,0,1,2,3.42c.61,2.14,1.08,4.33,1.64,6.49a15.68,15.68,0,0,0,.9,2.63,2.07,2.07,0,0,0,2.86,1,3.67,3.67,0,0,0,1.25-.78,16.71,16.71,0,0,0,2.2-2.57,49,49,0,0,0,2.54-4.67,91.84,91.84,0,0,0,4.56-11.4,187.4,187.4,0,0,0,6.45-24c.35-1.82.57-3.67.79-5.52a33.92,33.92,0,0,0,0-6.53c0-.37-.06-.74-.1-1.1l2.09,0h1.34l.09,1.49C212.5,128,212.59,130,212.72,132.8Z"/><path class="cls-1" d="M186.91,210.81l-.44.43a45.57,45.57,0,0,1-7.12,5.89,54.7,54.7,0,0,1-16.94,7.38,37.67,37.67,0,0,1-7.33,1c-1.45,0-2.9.13-4.36.17a56,56,0,0,1-10.5-.88,65.77,65.77,0,0,1-10.81-2.62,52.94,52.94,0,0,1-18-10.22,74.76,74.76,0,0,1-11-12.38V171.74c0,.08.07.17.12.25a63,63,0,0,0,4,7.35,6.94,6.94,0,0,0,1.93,2.11,2.79,2.79,0,0,0,1.73.46,2.94,2.94,0,0,0,2.68-1.8A33.66,33.66,0,0,0,112,177a34.28,34.28,0,0,1,2.44-5.87,22.61,22.61,0,0,1,6.86-7.21,68,68,0,0,1,7.57-4.58,39.26,39.26,0,0,0,1.62,9.22l-.66.38a15.83,15.83,0,0,0-5.37,5.27,9.26,9.26,0,0,0-1.66,4,24.51,24.51,0,0,0-.2,3.31c0,1.8.18,3.59.33,5.38a18.08,18.08,0,0,0,2.19,6.94,12.63,12.63,0,0,0,3,3.8,14.73,14.73,0,0,0,6.68,3,7.82,7.82,0,0,0,3.63.07,7.11,7.11,0,0,0,4.43-3.7,17.2,17.2,0,0,0,1.94-6.29,1.24,1.24,0,0,0,0-.18C155.2,200.05,169.88,207.29,186.91,210.81Z"/><path class="cls-1" d="M141.32,106.65a19.84,19.84,0,0,1,2,13.78A22.15,22.15,0,0,1,134,134.12a26.86,26.86,0,0,1-19.6,4.75,24.52,24.52,0,0,1-14.06-6.48V129.8a22.27,22.27,0,0,0,6.61,4.94,23,23,0,0,0,9.23,2.5,27.78,27.78,0,0,0,7.51-.55,23.7,23.7,0,0,0,14-8.67,18.68,18.68,0,0,0,4-14.48,18.1,18.1,0,0,0-4.17-9.27,23,23,0,0,0-16.67-8.17A24.91,24.91,0,0,0,108,98.56a23.56,23.56,0,0,0-7.63,5.71v-2.64a24.21,24.21,0,0,1,2.15-1.87c.17-.14.32-.3.62-.58-.44,0-.68,0-.93.06a5.41,5.41,0,0,1-1.84,0V93.35l0,0a8.25,8.25,0,0,1,3.4-1.69c.65-.14,1.3-.31,2-.43,3.2-.56,6.4-1.18,9.62-1.63,2.29-.33,4.62-.44,6.94-.61a71.32,71.32,0,0,1,11.6.06l.48.06a48.6,48.6,0,0,0,3.84,6.25,2.14,2.14,0,0,1-2,1.66,20.47,20.47,0,0,1-2.6,0,7.57,7.57,0,0,0-1.78,0c0,.14,0,.22.07.25a4.45,4.45,0,0,0,.51.33,23.55,23.55,0,0,1,6.25,5.12c.5.57.51.56,1.26.23a27.87,27.87,0,0,1,3.62-1.36c.65.65,1.31,1.29,2,1.91a26.3,26.3,0,0,0-4.88,1.53c0,.16,0,.2,0,.22Z"/><path class="cls-1" d="M199.28,100.41c-1.46-.2-2.88-.44-4.25-.71a26,26,0,0,0-12.51-4,36.36,36.36,0,0,1-11.75-8.39,68.54,68.54,0,0,1,8.95.17c2.09.13,4.17.38,6.24.65a18.86,18.86,0,0,1,3.92.74c4.63,1.62,7.46,5,8.93,9.57C199,99.1,199,99.81,199.28,100.41Z"/><path class="cls-1" d="M218.24,82.58A48.47,48.47,0,0,1,216,93.91a52.57,52.57,0,0,0-1.33,6.56c0,.24-.07.48-.1.72-1.17,0-2.36,0-3.56,0a90.86,90.86,0,0,1-9.43-.47c-.61-13.26-3.85-25.85-8.21-38.34-.68.07-1.28.17-1.88.2a25.81,25.81,0,0,1-8.3-.78,110.39,110.39,0,0,1-11.15-4c-1.62-.66-3.24-1.31-4.89-1.85,6.62-10.88,21.6-18.79,39.44-20a43.31,43.31,0,0,1,1.92,5.21,102.49,102.49,0,0,1,2.92,11.47c.36,2.09.62,4.2,1,6.29a28,28,0,0,0,2.07,7c.82,1.83,1.7,3.64,2.42,5.51A27.4,27.4,0,0,1,218.24,82.58Z"/><path class="cls-1" d="M186.25,15.11a102,102,0,0,0-16.6,5.11V48.63l-34.94-.08a41.9,41.9,0,0,0-5,14.72,53.18,53.18,0,0,1-5.65.29,57.12,57.12,0,0,1-6.53-.43c-3.11-.36-6.22-.74-9.3-1.41a8.93,8.93,0,0,0-5.32.24,13.36,13.36,0,0,0-2.59,1.4V46h66.88V12.52H101.07a3,3,0,0,0,.16-.31,22.85,22.85,0,0,1,8-8.49A18.54,18.54,0,0,1,117.67,1a43.19,43.19,0,0,1,9.3.34c3.05.39,6.1.82,9.12,1.46,2.1.45,4.19.91,6.3,1.29a23.69,23.69,0,0,0,7.56.27,3.93,3.93,0,0,0,1.12-.43,35.74,35.74,0,0,1,7.12-3,21.31,21.31,0,0,1,19.28,3.77,17.74,17.74,0,0,1,4.15,4.32c1,1.46,1.94,2.9,2.92,4.34A7,7,0,0,0,186.25,15.11Z"/><path class="cls-1" d="M87.28,238.12v.49a.16.16,0,0,1-.18.18H83.5s-.07,0-.07.07v11.5a.16.16,0,0,1-.18.18h-.59a.16.16,0,0,1-.18-.18v-11.5c0-.05,0-.07-.08-.07H79a.16.16,0,0,1-.18-.18v-.49a.16.16,0,0,1,.18-.18H87.1A.16.16,0,0,1,87.28,238.12Z"/><path class="cls-1" d="M102.7,242.19a3,3,0,0,1,.85,2.23v5.94a.16.16,0,0,1-.18.18h-.59a.16.16,0,0,1-.18-.18V244.6a2.42,2.42,0,0,0-.65-1.74,2.22,2.22,0,0,0-1.69-.67,2.39,2.39,0,0,0-1.75.66,2.3,2.3,0,0,0-.66,1.71v5.8a.16.16,0,0,1-.18.18h-.6a.16.16,0,0,1-.18-.18V238.12a.16.16,0,0,1,.18-.18h.6a.16.16,0,0,1,.18.18v4.41s0,.06,0,.06a0,0,0,0,0,0,0,2.54,2.54,0,0,1,1-.91,3.41,3.41,0,0,1,1.5-.32A3,3,0,0,1,102.7,242.19Z"/><path class="cls-1" d="M118.45,249.45a2.58,2.58,0,0,0,.94-1.07q.09-.16.24-.09l.47.23a.18.18,0,0,1,.09.24,3.13,3.13,0,0,1-1.25,1.4,3.76,3.76,0,0,1-2,.52,3.63,3.63,0,0,1-2.14-.61,3.07,3.07,0,0,1-1.21-1.67,4.88,4.88,0,0,1-.2-1c0-.37,0-.84,0-1.4s0-1,0-1.34a4.06,4.06,0,0,1,.11-.82,3.24,3.24,0,0,1,1.18-1.82,3.91,3.91,0,0,1,4.55.08,3.4,3.4,0,0,1,1.09,2.11,7.92,7.92,0,0,1,.08.81c0,.3,0,.68,0,1.14a.16.16,0,0,1-.18.18h-5.86s-.08,0-.08.07a8.13,8.13,0,0,0,.09,1.53,2.34,2.34,0,0,0,.9,1.4,2.86,2.86,0,0,0,1.75.51A2.62,2.62,0,0,0,118.45,249.45Zm-4.19-4a.07.07,0,0,0,.08.07h5a.06.06,0,0,0,.07-.07,7.46,7.46,0,0,0-.09-1.35,2.44,2.44,0,0,0-.86-1.4,2.58,2.58,0,0,0-1.64-.53,2.53,2.53,0,0,0-1.62.51,2.33,2.33,0,0,0-.83,1.36A8.48,8.48,0,0,0,114.26,245.45Zm1.93-5.25a.14.14,0,0,1,0-.15l1.1-2a.19.19,0,0,1,.21-.13H118a.16.16,0,0,1,.15.06.16.16,0,0,1,0,.16l-1.21,2a.26.26,0,0,1-.21.12h-.42C116.26,240.26,116.21,240.24,116.19,240.2Z"/><path class="cls-1" d="M131.47,250a3.29,3.29,0,0,1-1.22-1.78,9.34,9.34,0,0,1-.2-2.25,9.18,9.18,0,0,1,.2-2.24,3.26,3.26,0,0,1,1.21-1.77,3.91,3.91,0,0,1,4.36,0,3.17,3.17,0,0,1,1.21,1.76,5,5,0,0,1,.15.93c0,.34,0,.78,0,1.31s0,1,0,1.33a5.05,5.05,0,0,1-.15.92,3.22,3.22,0,0,1-1.21,1.78,3.64,3.64,0,0,1-2.19.66A3.55,3.55,0,0,1,131.47,250Zm3.79-.71a2.41,2.41,0,0,0,.87-1.4,8.7,8.7,0,0,0,.13-1.91,10.53,10.53,0,0,0-.11-1.9,2.37,2.37,0,0,0-.87-1.41,2.6,2.6,0,0,0-1.65-.52,2.57,2.57,0,0,0-1.64.52,2.41,2.41,0,0,0-.86,1.41A10,10,0,0,0,131,246a10.13,10.13,0,0,0,.13,1.91,2.41,2.41,0,0,0,.86,1.41,2.63,2.63,0,0,0,1.64.52A2.57,2.57,0,0,0,135.26,249.31Z"/><path class="cls-1" d="M158.67,249.79a2.85,2.85,0,0,1-1.15-2.38v-.6a.16.16,0,0,1,.18-.18h.56a.16.16,0,0,1,.18.18v.54a2.12,2.12,0,0,0,.91,1.8,4.14,4.14,0,0,0,2.52.69,3.67,3.67,0,0,0,2.29-.62,2.07,2.07,0,0,0,.79-1.72,2,2,0,0,0-.35-1.16,3.4,3.4,0,0,0-1.08-.93,16.94,16.94,0,0,0-2.06-1,23.22,23.22,0,0,1-2.12-1,3.46,3.46,0,0,1-1.14-1,2.59,2.59,0,0,1-.43-1.56,2.71,2.71,0,0,1,1-2.27,4.37,4.37,0,0,1,2.81-.8,4.77,4.77,0,0,1,3.08.9,2.92,2.92,0,0,1,1.12,2.41v.41a.16.16,0,0,1-.18.18H165a.16.16,0,0,1-.18-.18v-.36a2.2,2.2,0,0,0-.86-1.82,3.76,3.76,0,0,0-2.43-.7,3.42,3.42,0,0,0-2.11.57,1.93,1.93,0,0,0-.73,1.63,1.87,1.87,0,0,0,.34,1.17,2.82,2.82,0,0,0,1,.78c.42.22,1.08.51,2,.87a15,15,0,0,1,2.15,1,4.18,4.18,0,0,1,1.29,1.16,2.72,2.72,0,0,1,.47,1.6,2.86,2.86,0,0,1-1.08,2.34,4.66,4.66,0,0,1-3,.88A5,5,0,0,1,158.67,249.79Z"/><path class="cls-1" d="M181.13,242.14a2.94,2.94,0,0,1,.83,2.21v6a.16.16,0,0,1-.18.18h-.59a.16.16,0,0,1-.18-.18v-.85a.05.05,0,0,0,0,0s0,0-.06,0a3,3,0,0,1-1.22.9,4.42,4.42,0,0,1-1.66.3,3.49,3.49,0,0,1-2.11-.63,2.23,2.23,0,0,1-.86-1.92,2.54,2.54,0,0,1,1-2.11,4.33,4.33,0,0,1,2.72-.77h2.16a.07.07,0,0,0,.07-.07v-.81a2.25,2.25,0,0,0-.57-1.61,2.33,2.33,0,0,0-1.74-.59,2.79,2.79,0,0,0-1.51.38,1.62,1.62,0,0,0-.74,1,.18.18,0,0,1-.21.16l-.63-.09c-.13,0-.19-.07-.16-.15a2.23,2.23,0,0,1,1.05-1.56,3.87,3.87,0,0,1,2.22-.6A3.3,3.3,0,0,1,181.13,242.14Zm-1,7.16a1.76,1.76,0,0,0,.84-1.55v-1.64a.07.07,0,0,0-.07-.07h-2.07a3.59,3.59,0,0,0-2.07.54,1.72,1.72,0,0,0-.78,1.49,1.58,1.58,0,0,0,.61,1.34,2.58,2.58,0,0,0,1.57.45A3.5,3.5,0,0,0,180.17,249.3Z"/><path class="cls-1" d="M196.86,249.45a2.65,2.65,0,0,0,.94-1.07q.09-.16.24-.09l.46.23q.17.09.09.24a3.08,3.08,0,0,1-1.25,1.4,3.75,3.75,0,0,1-2,.52,3.68,3.68,0,0,1-2.15-.61,3.05,3.05,0,0,1-1.2-1.67,4.88,4.88,0,0,1-.2-1,13.86,13.86,0,0,1,0-1.4c0-.59,0-1,0-1.34a4.89,4.89,0,0,1,.12-.82,3.19,3.19,0,0,1,1.18-1.82,3.9,3.9,0,0,1,4.54.08,3.36,3.36,0,0,1,1.1,2.11,6,6,0,0,1,.07.81c0,.3,0,.68,0,1.14a.16.16,0,0,1-.18.18h-5.87a.06.06,0,0,0-.07.07,8.13,8.13,0,0,0,.09,1.53,2.33,2.33,0,0,0,.89,1.4,2.91,2.91,0,0,0,1.76.51A2.64,2.64,0,0,0,196.86,249.45Zm-4.19-4a.07.07,0,0,0,.07.07h5a.07.07,0,0,0,.07-.07,7.46,7.46,0,0,0-.09-1.35,2.41,2.41,0,0,0-.87-1.4,2.8,2.8,0,0,0-3.25,0,2.28,2.28,0,0,0-.83,1.36A8.48,8.48,0,0,0,192.67,245.45Z"/><path class="cls-1" d="M207.85,250.36v-.58a.35.35,0,0,1,.07-.23l5.36-7.11s0,0,0-.06a.06.06,0,0,0-.06,0H208.1a.16.16,0,0,1-.18-.18v-.52a.16.16,0,0,1,.18-.18h6.19a.16.16,0,0,1,.18.18v.57a.36.36,0,0,1-.07.24L209,249.57s0,0,0,.06a.06.06,0,0,0,.06,0h5.25a.16.16,0,0,1,.18.18v.52a.16.16,0,0,1-.18.18H208A.16.16,0,0,1,207.85,250.36Z"/></g></g></svg>