<svg id="try_off" data-name="try off" xmlns="http://www.w3.org/2000/svg" viewBox="0 0 283.46 283.46"><defs><style>.cls-1{fill:#f25151;}.cls-2{fill:#95f4b2;}</style></defs><path d="M72.39,139.72l0,.16a1.55,1.55,0,0,0,0,.21h0C72.34,140,72.37,139.84,72.39,139.72Z"/><path d="M89.35,145.87a11.89,11.89,0,0,0,2-.16H78.1a11.89,11.89,0,0,0,2,.16Z"/><path d="M96.62,219.16l-.11.23h0A2.29,2.29,0,0,1,96.62,219.16Z"/><path d="M67.51,218.63l0,.16,0-.19Z"/><path d="M97.11,139.75c0,.11,0,.23.07.34h0c0-.07,0-.14,0-.21Z"/><path d="M69.62,223.85s0,0,0,0h0Z"/><path d="M67.66,219.37h0v0Z"/><path d="M67.59,219l0,.16a1.16,1.16,0,0,0,0-.18Z"/><path d="M72.51,139.26l-.06.21s0,0,0,.06c0-.13.07-.27.11-.39C72.54,139.18,72.52,139.21,72.51,139.26Z"/><path d="M96.7,219a2.6,2.6,0,0,0,.1-.25A2.6,2.6,0,0,1,96.7,219Z"/><path d="M97.05,217.91a1.6,1.6,0,0,0,0-.21A1.6,1.6,0,0,1,97.05,217.91Z"/><path d="M96.93,218.36l0,.07a.65.65,0,0,0,0-.13S96.93,218.34,96.93,218.36Z"/><path d="M97.06,139.54c0-.15-.08-.3-.12-.44h0c0,.15.09.3.13.46Z"/><path d="M72.16,68.27V68h0v.3a10.27,10.27,0,0,0,.14,1.8h0A10.27,10.27,0,0,1,72.16,68.27Z"/><path d="M72.54,65.48a.88.88,0,0,0-.05.15l-.06.22s0,0,0,.06h0C72.45,65.76,72.5,65.62,72.54,65.48Z"/><path d="M68.46,185.88l.1.18h0l-.1-.18Z"/><path d="M97.06,65.85c0-.07,0-.14-.06-.22s0-.09,0-.14c0,.13.08.26.11.4C97.07,65.87,97.06,65.86,97.06,65.85Z"/><path d="M74.31,186v.06h0V186l-.44-.07.13,0Z"/><path d="M73.81,185.92h0l-.25-.05h0Z"/><path d="M79.17,186h0Z"/><path d="M78.46,186l-.3-.05Z"/><path d="M96.88,65.25a0,0,0,0,0,0,0,.88.88,0,0,0-.05-.15,2.09,2.09,0,0,1,.08.23A.08.08,0,0,0,96.88,65.25Z"/><path d="M69.75,224l.22.29h0l-.25-.33Z"/><path d="M70.07,224.43l.18.22h0l-.24-.28Z"/><path d="M99.12,224.78h0l-.07.08Z"/><rect class="cls-1" x="101.6" y="3.86" width="10.38" height="7.03"/><polygon class="cls-1" points="245.24 10.89 248.51 3.86 238.13 3.86 234.86 10.89 245.24 10.89"/><polygon class="cls-2" points="186.53 3.86 176.15 3.86 172.88 10.89 183.26 10.89 186.53 3.86"/><rect class="cls-2" x="43.82" y="3.86" width="10.38" height="7.03"/><polygon points="234.86 10.89 238.13 3.86 186.53 3.86 183.26 10.89 234.86 10.89"/><rect x="54.19" y="3.86" width="47.4" height="7.03"/><rect class="cls-1" x="101.6" y="233.57" width="0.04" height="0.37"/><rect class="cls-1" x="96.6" y="233.57" width="5" height="0.37"/><rect class="cls-1" x="101.6" y="185.88" width="0.04" height="0.19"/><path class="cls-1" d="M78.46,186l.71.07h.06c.29,0,.6,0,.91,0H101.6v-.18H78l.19,0Z"/><path class="cls-1" d="M56.81,186.06H68.56l-.1-.18H56.81v.18Z"/><path class="cls-1" d="M73.59,185.88h-.88l.09.18h1.51V186L74,186l-.13,0h-.06Z"/><rect class="cls-1" x="101.6" y="35.08" width="0.04" height="1.64"/><rect class="cls-1" x="101.6" y="18" width="0.04" height="0.52"/><path class="cls-2" d="M101.6,223.87v0h0Z"/><path class="cls-2" d="M68.46,185.88l.1.18H72.8l-.1-.18Z"/><path class="cls-2" d="M72.71,185.88h0l.1.18h0Z"/><polygon class="cls-1" points="101.64 266.02 101.6 266.02 101.6 266.02 101.63 266.02 101.63 269.61 101.6 269.61 101.6 277.11 111.98 277.11 111.98 251.32 101.64 251.32 101.64 266.02"/><polygon class="cls-1" points="239.55 277.11 249.93 277.11 238.32 251.32 227.94 251.32 239.55 277.11"/><rect class="cls-2" x="43.82" y="251.32" width="10.38" height="25.78"/><polygon class="cls-2" points="175.27 251.32 164.89 251.32 176.46 277.11 186.84 277.11 175.27 251.32"/><polygon points="175.27 251.32 186.84 277.11 239.55 277.11 227.94 251.32 175.27 251.32"/><path d="M96.6,254h0v3.59H72.89v6.85h-5V251.32H62v1.19a5.51,5.51,0,0,1-.12,1.19h0a5.23,5.23,0,0,1,.12,1.16v1.23A4.12,4.12,0,0,1,61,259a3.39,3.39,0,0,1-2.64,1.08A3.52,3.52,0,0,1,55.7,259a4,4,0,0,1-1-2.88v-1.23a4.85,4.85,0,0,1,.13-1.18,3.65,3.65,0,0,0,.91,1.7,3.52,3.52,0,0,0,2.7,1.11,3.75,3.75,0,0,0,1.81-.42,3.75,3.75,0,0,1-1.81.42,3.55,3.55,0,0,1-2.7-1.11,3.65,3.65,0,0,1-.91-1.7,5,5,0,0,1-.13-1.18v-1.19h-.47v25.79H101.6v-7.5h-5V266h0Zm-23.71,14h-5v-3.59h5Z"/><rect class="cls-2" x="101.6" y="266.02" width="0.04" height="3.59"/><rect class="cls-2" x="72.89" y="254.04" width="23.7" height="3.59"/><rect class="cls-2" x="96.6" y="266.02" width="5" height="3.59"/><rect class="cls-2" x="67.86" y="264.48" width="5.03" height="3.59"/><path class="cls-2" d="M60.21,256.08a3.75,3.75,0,0,1-1.81.42,3.52,3.52,0,0,1-2.7-1.11,3.65,3.65,0,0,1-.91-1.7,4.85,4.85,0,0,0-.13,1.18v1.23a4,4,0,0,0,1,2.88,3.52,3.52,0,0,0,2.7,1.11A3.39,3.39,0,0,0,61,259a4.12,4.12,0,0,0,1-2.91v-1.23a5.23,5.23,0,0,0-.12-1.16,3.61,3.61,0,0,1-.86,1.71A3.1,3.1,0,0,1,60.21,256.08Z"/><rect x="101.6" y="251.32" width="0.04" height="14.69"/><polygon points="67.86 251.32 67.86 264.48 72.89 264.48 72.89 257.63 72.89 257.63 72.89 254.04 72.89 254.04 72.89 254.04 96.6 254.04 96.6 266.02 101.6 266.02 101.6 251.32 67.86 251.32"/><rect x="72.89" y="254.04" height="3.59"/><path d="M54.66,252.51a5,5,0,0,0,.13,1.18,3.65,3.65,0,0,0,.91,1.7,3.55,3.55,0,0,0,2.7,1.11,3.75,3.75,0,0,0,1.81-.42,3.1,3.1,0,0,0,.83-.66,3.6,3.6,0,0,0,.86-1.72h0a5.51,5.51,0,0,0,.12-1.19v-1.19H54.66Z"/><path d="M61,255.42a3.1,3.1,0,0,1-.83.66,3.1,3.1,0,0,0,.83-.66,3.61,3.61,0,0,0,.86-1.71h0A3.6,3.6,0,0,1,61,255.42Z"/><path d="M97.11,217.66v0l0-.17c0,.08,0,.16-.05.24Z"/><path d="M96.9,218.43c0,.1-.07.2-.1.29a1.12,1.12,0,0,1,0-.13A1,1,0,0,0,96.9,218.43Z"/><path d="M96.62,219.16a1.54,1.54,0,0,0,.08-.19A1.54,1.54,0,0,1,96.62,219.16Z"/><path d="M97.05,217.91c0,.13-.07.26-.11.39a1.42,1.42,0,0,0,.07-.22C97,218,97,218,97.05,217.91Z"/><path d="M70.41,224.82l-.14-.16Z"/><path d="M67.54,218.79a1.7,1.7,0,0,1,0,.22v0A1.42,1.42,0,0,1,67.54,218.79Z"/><path d="M99.86,223.86l-.06.09,0,.07-.21.26-.12.16c-.07.09-.16.18-.24.27a.18.18,0,0,1-.05.07c.26-.3.51-.61.74-.93h0A0,0,0,0,1,99.86,223.86Z"/><path d="M70,224.38l-.06-.07Z"/><path d="M69.63,223.86h0l.09.12,0,0Z"/><path class="cls-1" d="M101.6,223.87v9.7h0v.37H112V223.85H101.6Z"/><polygon class="cls-1" points="220.12 233.94 230.5 233.94 225.96 223.84 215.58 223.84 220.12 233.94"/><rect class="cls-2" x="43.82" y="223.85" width="10.38" height="10.1"/><polygon class="cls-2" points="162.94 223.84 152.56 223.84 157.09 233.94 167.47 233.94 162.94 223.84"/><path d="M80.14,228.68q-6,0-9.45-3.56l-.28-.3,0,0,.25.28q3.45,3.57,9.46,3.56h9.21a14.28,14.28,0,0,0,6.52-1.39,14.28,14.28,0,0,1-6.52,1.39Z"/><polygon points="215.58 223.84 162.94 223.84 167.47 233.94 220.12 233.94 215.58 223.84"/><path d="M89.35,232.27H80.14q-6,0-9.46-3.56a11.66,11.66,0,0,1-2.79-4.86H54.19v10.09H96.6v-.37h5v-9.7a11.53,11.53,0,0,1-2.79,4.84Q95.38,232.27,89.35,232.27Z"/><path d="M96.41,227l-.23.12Z"/><path class="cls-2" d="M99.87,223.85c-.23.32-.48.63-.74.93h0l-.06.08-.25.26a10.89,10.89,0,0,1-2.4,1.88l-.23.12-.31.17a14.28,14.28,0,0,1-6.52,1.39H80.14q-6,0-9.46-3.56l-.25-.28,0,0-.14-.16h0l-.18-.22,0-.05-.06-.07h0l-.22-.29,0,0-.09-.12s0,0,0,0H67.89a11.66,11.66,0,0,0,2.79,4.86q3.45,3.56,9.46,3.56h9.21q6,0,9.46-3.56a11.53,11.53,0,0,0,2.79-4.84v0Z"/><path d="M99.42,224.44l.12-.16.21-.26,0-.07.06-.09a0,0,0,0,0,0,0H69.63l.07.09,0,0,.25.33.06.07.24.28.14.16.28.3q3.44,3.56,9.45,3.56h9.21a14.28,14.28,0,0,0,6.52-1.39l.31-.17.23-.12a10.89,10.89,0,0,0,2.4-1.88l.25-.26.07-.08a.18.18,0,0,0,.05-.07C99.26,224.62,99.35,224.53,99.42,224.44Z"/><path d="M96.18,227.12l-.31.17Z"/><path d="M96.41,227a10.89,10.89,0,0,0,2.4-1.88l.25-.26-.25.26A10.89,10.89,0,0,1,96.41,227Z"/><path d="M67.64,219.25s0,0,0-.06,0,.11,0,.16v0A.13.13,0,0,1,67.64,219.25Z"/><path d="M67.5,218.57a2,2,0,0,0,0-.24s0-.07,0-.11l.06.38S67.5,218.58,67.5,218.57Z"/><polygon points="67.67 219.38 67.67 219.39 67.67 219.39 67.67 219.38"/><polygon class="cls-1" points="213.57 219.39 223.95 219.39 208.87 185.88 198.49 185.88 213.57 219.39"/><path class="cls-1" d="M101.63,186.06h0v5.53h0v3.59h0V207a17.07,17.07,0,0,1,.65,4.84c0,.63,0,1.23-.08,1.81h0a17.34,17.34,0,0,1,.08,1.79c0,.62,0,1.22-.08,1.8h0a17,17,0,0,1,.08,1.77v.39H112V185.88H101.63Z"/><rect class="cls-2" x="43.82" y="185.88" width="10.38" height="33.51"/><polygon class="cls-2" points="145.9 185.88 135.52 185.88 150.56 219.39 160.94 219.39 145.9 185.88"/><polygon points="198.49 185.88 145.9 185.88 160.94 219.39 213.57 219.39 198.49 185.88"/><path d="M56.81,186.06h0v-.18H54.19v33.51H67.25V219c0-.61,0-1.2.07-1.78,0,.34.08.67.13,1,0-.33-.09-.66-.12-1,0-.58-.08-1.18-.08-1.8a17.34,17.34,0,0,1,.08-1.79,13,13,0,0,1,3-7.61,10.66,10.66,0,0,1,3.18-2.47A10.66,10.66,0,0,0,70.37,206a13,13,0,0,0-3,7.62,17.94,17.94,0,0,1-.08-1.82,13.75,13.75,0,0,1,3.12-9.39,11.36,11.36,0,0,1,8.54-3.75v3.6h0v9.11a6.89,6.89,0,0,0-5,2.18,6.35,6.35,0,0,0-1.13,1.81h0a6.47,6.47,0,0,0,1.44,2.13A7.07,7.07,0,0,0,78,219.39H91.45a7.14,7.14,0,0,0,3.8-1.85,6.31,6.31,0,0,0,1.44-2.14,7.63,7.63,0,0,1,.51,1.81c0,.08,0,.17,0,.25,0-.09,0-.17,0-.25a7.63,7.63,0,0,0-.51-1.81,6.14,6.14,0,0,0-1.14-1.83,6.85,6.85,0,0,0-5-2.18v-9.11h0v-3.6a11.32,11.32,0,0,1,8.53,3.75A11.94,11.94,0,0,1,101.6,207v-11.8H56.81v-3.59h0Z"/><path d="M100.74,208.41l-.15-.28v0c0,.11.11.21.16.32Z"/><path d="M100.51,208v0l0,0Z"/><path class="cls-1" d="M102.17,213.63c0-.58.08-1.18.08-1.81a17.07,17.07,0,0,0-.65-4.84v3.59A16.12,16.12,0,0,1,102.17,213.63Z"/><path class="cls-1" d="M78.91,198.68a11.36,11.36,0,0,0-8.54,3.75,13.75,13.75,0,0,0-3.12,9.39,17.94,17.94,0,0,0,.08,1.82,13,13,0,0,1,3-7.62,10.66,10.66,0,0,1,3.18-2.47,12.64,12.64,0,0,1,5.36-1.27Z"/><path class="cls-1" d="M96.62,219.16a1.54,1.54,0,0,0,.08-.19,2.6,2.6,0,0,0,.1-.25c0-.09.07-.19.1-.29l0-.07s0,0,0-.06.08-.26.11-.39a1.6,1.6,0,0,0,0-.21c0-.08,0-.16.05-.24s0-.17,0-.25a7.63,7.63,0,0,0-.51-1.81,6.31,6.31,0,0,1-1.44,2.14,7.14,7.14,0,0,1-3.8,1.85h5.06Z"/><path class="cls-1" d="M90.58,198.68v3.6h0A11.28,11.28,0,0,1,99.12,206,12.25,12.25,0,0,1,100.5,208v0h0l.06.1v0l.15.28h0a12.37,12.37,0,0,1,.86,2.15V207a11.94,11.94,0,0,0-2.49-4.55A11.32,11.32,0,0,0,90.58,198.68Z"/><path class="cls-1" d="M73,219.39h5a7.07,7.07,0,0,1-3.78-1.88,6.47,6.47,0,0,1-1.44-2.13,7.43,7.43,0,0,0-.51,1.81A7.57,7.57,0,0,0,73,219.39Z"/><path class="cls-2" d="M102.25,219.39V219a17,17,0,0,0-.08-1.77,16.24,16.24,0,0,1-.34,2.16Z"/><path class="cls-2" d="M67.67,219.38h0v0s0-.11,0-.16l0-.16v0a1.7,1.7,0,0,0,0-.22l0-.16v0l-.06-.38c0-.33-.1-.66-.13-1,0,.58-.07,1.17-.07,1.78v.39h.42Z"/><path class="cls-2" d="M97.2,213.62A7,7,0,0,0,95.55,210a6.85,6.85,0,0,0-5-2.18v3.59a6.85,6.85,0,0,1,5,2.18,6.14,6.14,0,0,1,1.14,1.83,7.63,7.63,0,0,1,.51,1.81,11.58,11.58,0,0,0,0-3.59Z"/><path class="cls-2" d="M73.94,210a7.08,7.08,0,0,0-1.64,3.62,11.59,11.59,0,0,0-.14,1.82,11,11,0,0,0,.14,1.77,7.31,7.31,0,0,1,.51-1.81h0a6.35,6.35,0,0,1,1.13-1.81,6.89,6.89,0,0,1,5-2.18V207.8A6.89,6.89,0,0,0,73.94,210Z"/><path class="cls-2" d="M72.3,217.19h0a7.43,7.43,0,0,1,.51-1.81h0A7.31,7.31,0,0,0,72.3,217.19Z"/><rect class="cls-2" x="101.6" y="191.59" width="0.04" height="3.59"/><rect class="cls-2" x="56.81" y="191.59" width="44.79" height="3.59"/><path d="M102.13,213.27a.22.22,0,0,0,0-.08s0-.08,0-.12,0-.06,0-.09,0-.25,0-.37-.06-.38-.1-.57a1.06,1.06,0,0,0,0-.19.2.2,0,0,0,0-.07c0-.12-.05-.23-.08-.35a3.89,3.89,0,0,0-.12-.49c0-.13-.07-.25-.1-.37v8.82h.23c0-.17.08-.34.11-.52s.12-.64.16-1c0-.06,0-.11,0-.16s0-.07,0-.11,0-.27,0-.41h0c0-.58.08-1.18.08-1.8a17.34,17.34,0,0,0-.08-1.79h0C102.16,213.51,102.15,213.39,102.13,213.27Z"/><path d="M67.5,218.57s0,0,0,0l0,.19a1.42,1.42,0,0,0,0,.2v0a1.16,1.16,0,0,1,0,.18s0,0,0,.06a.13.13,0,0,0,0,.06v.07H73a7.57,7.57,0,0,1-.7-2.2h0a11,11,0,0,1-.14-1.77,11.59,11.59,0,0,1,.14-1.82A7.08,7.08,0,0,1,73.94,210a6.89,6.89,0,0,1,5-2.18v-5.52h0a12.64,12.64,0,0,0-5.36,1.27A10.66,10.66,0,0,0,70.37,206a13,13,0,0,0-3,7.61,17.34,17.34,0,0,0-.08,1.79c0,.62,0,1.22.08,1.8,0,.34.07.67.12,1,0,0,0,.07,0,.11A2,2,0,0,1,67.5,218.57Z"/><path d="M97.11,217.66v0a1.6,1.6,0,0,1,0,.21c0,.05,0,.11,0,.17a1.42,1.42,0,0,1-.07.22.65.65,0,0,1,0,.13,1,1,0,0,1-.05.16,1.12,1.12,0,0,0,0,.13,2.6,2.6,0,0,1-.1.25,1.54,1.54,0,0,1-.08.19,2.29,2.29,0,0,0-.1.23h5.08v-8.82a1.55,1.55,0,0,1-.07-.23c-.09-.28-.19-.55-.3-.82l-.06-.16L101,209l-.1-.22-.09-.18-.09-.18c0-.11-.11-.21-.16-.32l-.06-.1,0,0-.2-.35-.26-.4,0,0c-.08-.13-.16-.25-.25-.37l-.23-.3-.15-.18a3.82,3.82,0,0,0-.27-.32,11.31,11.31,0,0,0-8.53-3.74v5.52a6.85,6.85,0,0,1,5,2.18,7,7,0,0,1,1.65,3.64,11.58,11.58,0,0,1,0,3.59c0,.08,0,.16,0,.25l0,.17Z"/><path d="M101.6,210.57c0,.12.07.24.1.37a3.89,3.89,0,0,1,.12.49c0,.12.06.23.08.35a.2.2,0,0,1,0,.07,1.06,1.06,0,0,1,0,.19c0,.19.07.38.1.57s0,.24,0,.37,0,.06,0,.09,0,.08,0,.12a.22.22,0,0,1,0,.08c0,.12,0,.24,0,.37h0a16.12,16.12,0,0,0-.57-3.06Z"/><path d="M72.3,217.19h0a7.57,7.57,0,0,0,.7,2.2h0A7.57,7.57,0,0,1,72.3,217.19Z"/><path d="M78.91,202.28a12.64,12.64,0,0,0-5.36,1.27,12.64,12.64,0,0,1,5.36-1.27Z"/><path d="M99.11,206a3.82,3.82,0,0,1,.27.32l.15.18.23.3c.09.12.17.24.25.37l0,0,.26.4.2.35A12.25,12.25,0,0,0,99.12,206a11.28,11.28,0,0,0-8.54-3.74h0A11.31,11.31,0,0,1,99.11,206Z"/><path d="M100.92,208.78l.1.22.15.36.06.16c.11.27.21.54.3.82a1.55,1.55,0,0,0,.07.23h0a12.37,12.37,0,0,0-.86-2.15l.09.18Z"/><path d="M100.52,208l.06.1Z"/><path d="M102.13,217.63s0,.07,0,.11,0,.1,0,.16c0,.33-.1.65-.16,1s-.07.35-.11.52h0a16.24,16.24,0,0,0,.34-2.16h0C102.16,217.36,102.15,217.5,102.13,217.63Z"/><polygon points="101.6 186.06 101.6 191.59 101.64 191.59 101.64 186.06 101.63 186.06 101.63 186.06 101.6 186.06"/><path d="M80.14,186.06h-.48l-.35,0H79l-.21,0-.21,0-.15,0-.3-.05-.24,0H73.59l.25.05h0l.44.07v.06H56.81v5.53H101.6v-5.53Z"/><rect x="101.6" y="186.06" width="0.04"/><polygon points="72.8 186.06 72.8 186.06 74.31 186.06 74.31 186.06 72.8 186.06 72.8 186.06"/><polygon points="56.81 186.06 68.56 186.06 68.56 186.06 56.81 186.06 56.81 186.06"/><path d="M78.16,185.91l-.19,0h0Z"/><path d="M73.84,185.93h0Z"/><path d="M79.23,186h.08l.35,0h.48C79.83,186.06,79.52,186.05,79.23,186Z"/><path d="M78.61,186l.21,0,.21,0h.14l-.71-.07Z"/><polygon class="cls-1" points="101.6 162.33 101.63 162.33 101.63 165.91 101.64 165.91 101.64 171.44 101.64 175.03 101.6 175.03 101.6 178.66 111.98 178.66 111.98 158.97 101.6 158.97 101.6 162.33"/><polygon class="cls-1" points="195.24 178.66 205.62 178.66 190.8 145.71 180.42 145.71 195.24 178.66"/><rect class="cls-2" x="43.82" y="145.71" width="10.38" height="32.94"/><polygon class="cls-2" points="133.82 158.97 123.44 158.97 132.28 178.66 142.65 178.66 133.82 158.97"/><path d="M73.94,177a6,6,0,0,0-1.26,1.69H101.6V175H79.53A7.76,7.76,0,0,0,73.94,177Z"/><path d="M142.65,178.66h52.59l-14.82-32.95H102.25q0,5.91-3.44,9.36t-9.46,3.51H80.14q-6,0-9.46-3.51t-3.43-9.36H54.19v32.95H67.34a14.18,14.18,0,0,1-.09-1.63,13.09,13.09,0,0,1,.11-1.8,10.09,10.09,0,0,1,3-6.31,10.34,10.34,0,0,1,2.19-1.58,10.34,10.34,0,0,0-2.19,1.58,10.18,10.18,0,0,0-3.06,6.31,14.63,14.63,0,0,1-.1-1.79,10.63,10.63,0,0,1,3.16-8.1,11.8,11.8,0,0,1,8.5-3H101.6V159h32.22Z"/><rect class="cls-1" x="101.6" y="162.33" width="0.04" height="3.59"/><path class="cls-1" d="M101.6,165.92v-3.59H78.91a11.8,11.8,0,0,0-8.5,3,10.63,10.63,0,0,0-3.16,8.1,14.63,14.63,0,0,0,.1,1.79,10.18,10.18,0,0,1,3.06-6.31,10.34,10.34,0,0,1,2.19-1.58,13.1,13.1,0,0,1,6.31-1.42Z"/><path class="cls-1" d="M89.35,145.87H80.14a11.89,11.89,0,0,1-2-.16H72.9a5.92,5.92,0,0,0,1.31,1.81,8.35,8.35,0,0,0,5.93,1.94h9.21a8.34,8.34,0,0,0,5.93-1.94,6.09,6.09,0,0,0,1.31-1.81h-5.2A11.89,11.89,0,0,1,89.35,145.87Z"/><rect class="cls-2" x="101.6" y="171.44" width="0.04" height="3.59"/><path class="cls-2" d="M79.53,171.44a7.76,7.76,0,0,0-5.59,1.94,6.31,6.31,0,0,0-1.86,3.47,9.19,9.19,0,0,0-.17,1.78v0h.77A6,6,0,0,1,73.94,177,7.76,7.76,0,0,1,79.53,175H101.6v-3.59Z"/><path class="cls-2" d="M98.81,151.48Q95.38,155,89.35,155H80.14q-6,0-9.46-3.51a11.65,11.65,0,0,1-3.05-5.77h-.38q0,5.91,3.43,9.36t9.46,3.51h9.21q6,0,9.46-3.51t3.44-9.36h-.39A11.49,11.49,0,0,1,98.81,151.48Z"/><polygon points="101.6 165.92 101.6 171.44 101.64 171.44 101.64 165.91 101.63 165.91 101.63 165.92 101.6 165.92"/><path d="M71.91,178.63a9.19,9.19,0,0,1,.17-1.78,6.31,6.31,0,0,1,1.86-3.47,7.76,7.76,0,0,1,5.59-1.94H101.6v-5.52H78.91a13.1,13.1,0,0,0-6.31,1.42,10.34,10.34,0,0,0-2.19,1.58,10.09,10.09,0,0,0-3,6.31,13.09,13.09,0,0,0-.11,1.8,14.18,14.18,0,0,0,.09,1.63h4.57Z"/><rect x="101.6" y="165.92" width="0.04"/><path d="M101.6,165.92H78.91a13.1,13.1,0,0,0-6.31,1.42,13.1,13.1,0,0,1,6.31-1.42Z"/><path d="M95.28,147.52a8.34,8.34,0,0,1-5.93,1.94H80.14a8.35,8.35,0,0,1-5.93-1.94,5.92,5.92,0,0,1-1.31-1.81H67.63a11.65,11.65,0,0,0,3.05,5.77Q74.13,155,80.14,155h9.21q6,0,9.46-3.51a11.49,11.49,0,0,0,3-5.77H96.59A6.09,6.09,0,0,1,95.28,147.52Z"/><path class="cls-2" d="M97.07,139.56a1.29,1.29,0,0,0,0,.19A1.29,1.29,0,0,1,97.07,139.56Z"/><path class="cls-2" d="M96.82,138.76l.12.34Z"/><path class="cls-2" d="M72.39,139.72c0-.06,0-.13,0-.19S72.41,139.66,72.39,139.72Z"/><path class="cls-2" d="M72.58,139l0,.12,0-.11Z"/><polygon class="cls-1" points="176.31 136.59 177.89 140.09 188.27 140.09 186.69 136.59 204.49 98.38 194.11 98.38 176.31 136.59"/><path class="cls-1" d="M101.64,101.43s0,0,0,.07V105c0,.37,0,.72,0,1.06v9.65H112V98.38H101.64Z"/><rect class="cls-2" x="43.82" y="98.38" width="10.38" height="41.72"/><polygon class="cls-2" points="142.65 98.38 132.27 98.38 124.21 115.73 134.59 115.73 142.65 98.38"/><path d="M95.83,137a.69.69,0,0,0-.11-.13,1.56,1.56,0,0,1,.16.2Z"/><path d="M72.89,110.65H92.73a10,10,0,0,0,4.67-1,10,10,0,0,1-4.67,1Z"/><path d="M99.64,107.84l.09-.11-.1.12Z"/><path d="M75.36,135.56a6,6,0,0,0-1.15.85l-.18.18-.07.07-.09.1c.11-.12.22-.24.34-.35A6,6,0,0,1,75.36,135.56Z"/><path d="M96.79,138.68v0a.42.42,0,0,0,0,.1Z"/><path d="M73.13,137.79s0,.09-.08.14.1-.18.16-.27A.57.57,0,0,0,73.13,137.79Z"/><path d="M96.61,138.26l0-.09.11.24A1,1,0,0,1,96.61,138.26Z"/><path d="M96,137.27l.11.16Z"/><path d="M73.8,136.84l-.2.24,0,.07.29-.36Z"/><path d="M95.47,136.6l-.15-.15.24.24Z"/><path d="M96.38,137.82l-.06-.1c.05.08.1.16.14.24A.64.64,0,0,0,96.38,137.82Z"/><path d="M73.48,137.24c-.07.09-.13.19-.19.28a3.62,3.62,0,0,1,.22-.32Z"/><path d="M89.35,138.06H80.14A8.31,8.31,0,0,0,74.21,140l-.09.09H95.37l-.09-.09A8.29,8.29,0,0,0,89.35,138.06Z"/><path d="M72.66,138.8c0,.07,0,.15-.08.22l.12-.33S72.67,138.76,72.66,138.8Z"/><path d="M95.65,104.23a2.66,2.66,0,0,1-.54.39,2.66,2.66,0,0,0,.54-.39,3.69,3.69,0,0,0,.95-2.8V98.38h0v3.05A3.69,3.69,0,0,1,95.65,104.23Z"/><path d="M72.82,138.41a2.56,2.56,0,0,1,.11-.24A2.56,2.56,0,0,0,72.82,138.41Z"/><path d="M101.6,106.08a8.85,8.85,0,0,1-2.3,5.73,8.68,8.68,0,0,1-6.57,2.43H72.89v5.92h-5v-9.51H58.65v-5.53h0v-3.59h9.22v3.59h0V98.38H54.19v41.71H67.32c0-.55-.07-1.12-.07-1.71q0-6,3.43-9.52t9.4-3.5h9.27q6,0,9.46,3.5t3.44,9.52c0,.59,0,1.16-.07,1.71h75.71l-1.58-3.5,17.8-38.21H142.65l-8.06,17.35h-33Zm-43,8.16v-3.59h9.22v3.59Zm14.25,9.52h-5v-3.59h5Z"/><path d="M100.48,106.6h0a.41.41,0,0,0,0,.09Z"/><path d="M101.32,104.37v0Z"/><path d="M92.73,101.53a4.18,4.18,0,0,0,2.92-.89,3.35,3.35,0,0,0,.93-2.26H72.89v3.15Z"/><path d="M99.92,107.49l.08-.11-.11.15Z"/><path class="cls-1" d="M70.68,132.44q3.45-3.49,9.4-3.49h9.27q6,0,9.46,3.49a12.23,12.23,0,0,1,3.35,7.65h0c0-.55.07-1.12.07-1.71q0-6-3.44-9.52t-9.46-3.5H80.08q-6,0-9.4,3.5t-3.43,9.52c0,.59,0,1.16.07,1.71h0A12.27,12.27,0,0,1,70.68,132.44Z"/><polygon class="cls-1" points="67.86 105.12 67.86 101.53 58.64 101.53 58.64 105.12 58.65 105.12 58.65 105.12 67.86 105.12"/><path class="cls-1" d="M92.73,101.53H72.89v3.59H92.73a4.92,4.92,0,0,0,2.38-.5,2.66,2.66,0,0,0,.54-.39,3.69,3.69,0,0,0,.95-2.8V98.38h0a3.35,3.35,0,0,1-.93,2.26A4.18,4.18,0,0,1,92.73,101.53Z"/><path class="cls-2" d="M101.6,106.08c0-.34,0-.69,0-1.06V101.5c0,.34,0,.68,0,1Z"/><path class="cls-2" d="M101.32,104.35v0h0a9,9,0,0,1-.83,2.23h0l0,.09c-.14.24-.29.47-.44.69l-.08.11,0,0-.16.2-.09.11h0a3.8,3.8,0,0,1-.33.37,7.43,7.43,0,0,1-1.9,1.42,10,10,0,0,1-4.67,1H72.89v3.59H92.73a8.68,8.68,0,0,0,6.57-2.43,8.85,8.85,0,0,0,2.3-5.73V102.5A11.57,11.57,0,0,1,101.32,104.35Z"/><rect class="cls-2" x="67.86" y="120.17" width="5.03" height="3.59"/><rect class="cls-2" x="58.64" y="110.65" width="9.22" height="3.59"/><path d="M72.36,139.88l0-.16c0-.06,0-.13,0-.19s0,0,0-.06l.06-.21s0-.08,0-.12l0-.12c0-.07,0-.15.08-.22s0-.07,0-.11l.12-.28a2.56,2.56,0,0,1,.11-.24l.12-.24c0-.05,0-.1.08-.14a.57.57,0,0,1,.08-.13,1,1,0,0,1,.08-.14c.06-.09.12-.19.19-.28l0,0,0,0,0-.07.2-.24,0-.05,0,0,.09-.1.07-.07.18-.18a6,6,0,0,1,1.15-.85,9.39,9.39,0,0,1,4.78-1.09h9.21a8.29,8.29,0,0,1,5.93,1.94l0,0,.15.15.09.09.16.19a.69.69,0,0,1,.11.13l0,.07.15.19.11.16.18.29.06.1a.64.64,0,0,1,.08.14l.11.21,0,.09a1,1,0,0,0,.07.15c0,.08.07.16.1.25v0l0,.08.12.34h0c0,.14.09.29.12.44v0a1.29,1.29,0,0,0,0,.19l0,.13c0,.07,0,.14,0,.21h5a12.23,12.23,0,0,0-3.35-7.65q-3.44-3.49-9.46-3.49H80.08q-6,0-9.4,3.49a12.27,12.27,0,0,0-3.34,7.65h5A1.55,1.55,0,0,1,72.36,139.88Z"/><path class="cls-2" d="M74.12,140.09l.09-.09a8.31,8.31,0,0,1,5.93-1.94h9.21A8.29,8.29,0,0,1,95.28,140l.09.09h1.81c0-.11-.05-.23-.07-.34a1.29,1.29,0,0,1,0-.19c0-.16-.09-.31-.13-.46l-.12-.34a.42.42,0,0,1,0-.1l-.06-.15a.69.69,0,0,1,0-.1l-.11-.24L96.5,138l0-.08c0-.08-.09-.16-.14-.24l0-.05-.15-.24-.11-.16c0-.06-.09-.13-.15-.19a1.56,1.56,0,0,0-.16-.2l-.06-.08-.1-.11-.24-.24,0,0a8.29,8.29,0,0,0-5.93-1.94H80.14a9.39,9.39,0,0,0-4.78,1.09,6,6,0,0,0-1.15.85c-.12.11-.23.23-.34.35l0,0-.29.36,0,0a3.62,3.62,0,0,0-.22.32l0,0a.41.41,0,0,0-.05.09c-.06.09-.11.18-.16.27l-.12.24a2.56,2.56,0,0,0-.11.24l-.12.28-.12.33h0l0,.11c0,.12-.08.26-.11.39s0,.13,0,.19,0,.25-.07.37Z"/><path class="cls-2" d="M95.88,137.08c.06.06.1.13.15.19Z"/><path class="cls-2" d="M73.51,137.2l0,0Z"/><path class="cls-2" d="M73.84,136.79l0,0Z"/><path class="cls-2" d="M72.7,138.69l.12-.28Z"/><path class="cls-2" d="M72.93,138.17l.12-.24Z"/><path class="cls-2" d="M95.72,136.88l-.16-.19.1.11Z"/><path class="cls-2" d="M89.35,134.47a8.29,8.29,0,0,1,5.93,1.94l0,0,0,0a8.29,8.29,0,0,0-5.93-1.94H80.14a9.39,9.39,0,0,0-4.78,1.09,9.39,9.39,0,0,1,4.78-1.09Z"/><path class="cls-2" d="M96.78,138.66c0-.09-.07-.17-.1-.25a.69.69,0,0,0,0,.1Z"/><path class="cls-2" d="M73.29,137.52a1,1,0,0,0-.08.14.41.41,0,0,1,.05-.09Z"/><path class="cls-2" d="M96.57,138.17l-.11-.21,0,.08Z"/><path class="cls-2" d="M96.32,137.72l-.18-.29.15.24Z"/><path d="M101.6,102.5c0-.35,0-.7,0-1.07v.07s0,0,0-.07V98.38h0Z"/><path d="M72.89,110.65H92.73a10,10,0,0,0,4.67-1,7.43,7.43,0,0,0,1.9-1.42,2.73,2.73,0,0,0,.23-.25l.1-.12.1-.12.1-.12.06-.08.11-.15a.43.43,0,0,0,0-.07h0a.57.57,0,0,0,.08-.13,0,0,0,0,0,0,0,1.58,1.58,0,0,0,.15-.24l0-.06.11-.18a.41.41,0,0,1,0-.09v0l.09-.16.09-.18c0-.09.08-.17.11-.25s.16-.36.22-.54a1.83,1.83,0,0,0,.08-.25,3.38,3.38,0,0,0,.11-.34c0-.11.06-.22.09-.33a.09.09,0,0,0,0,0,.29.29,0,0,0,0-.09v0c0-.1.05-.2.07-.3l0-.14c0-.14,0-.28.07-.42l.06-.49c0-.17,0-.33,0-.5V98.38h-5v3.05a3.69,3.69,0,0,1-.95,2.8,2.66,2.66,0,0,1-.54.39,5,5,0,0,1-2.38.5H72.89v-3.59h0V98.38h-5v6.74H58.65v5.53h9.21v9.51h5v-5.92h0Z"/><path d="M72.89,105.12v-3.59h0v3.59H92.73a5,5,0,0,0,2.38-.5,4.92,4.92,0,0,1-2.38.5Z"/><rect x="58.65" y="105.12" width="9.21"/><path d="M101.6,102.5h0c0-.32,0-.66,0-1v-.07C101.63,101.8,101.62,102.15,101.6,102.5Z"/><path d="M100.29,106.93a1.58,1.58,0,0,1-.15.24,0,0,0,0,1,0,0,.57.57,0,0,1-.08.13h0a.43.43,0,0,1,0,.07c.15-.22.3-.45.44-.69l-.11.18Z"/><path d="M99.73,107.73l.16-.2-.06.08Z"/><path d="M101.49,103.49c0,.14,0,.28-.07.42l0,.14c0,.1,0,.2-.07.3a11.57,11.57,0,0,0,.28-1.85h0c0,.17,0,.33,0,.5Z"/><path d="M101.29,104.48a.09.09,0,0,1,0,0c0,.11,0,.22-.09.33a3.38,3.38,0,0,1-.11.34,1.83,1.83,0,0,1-.08.25c-.06.18-.14.36-.22.54s-.07.16-.11.25l-.09.18-.09.16v0a9,9,0,0,0,.83-2.23v0A.29.29,0,0,1,101.29,104.48Z"/><rect x="72.89" y="110.65" height="3.59"/><path d="M99.3,108.22a7.43,7.43,0,0,1-1.9,1.42,7.43,7.43,0,0,0,1.9-1.42,3.8,3.8,0,0,0,.33-.37l-.1.12A2.73,2.73,0,0,1,99.3,108.22Z"/><polygon class="cls-1" points="200.4 84.88 210.77 84.88 218.65 67.97 208.28 67.97 200.4 84.88"/><path class="cls-1" d="M102.25,68.27c0,.62,0,1.22-.08,1.8s.08,1.17.08,1.79a16.52,16.52,0,0,1-.65,4.77v8.25H112V68h-9.73Z"/><rect class="cls-2" x="43.82" y="67.97" width="10.38" height="16.91"/><polygon class="cls-2" points="156.76 67.97 146.38 67.97 138.53 84.88 148.91 84.88 156.76 67.97"/><path d="M70.68,81.38q-3.44-3.5-3.43-9.52a17.34,17.34,0,0,1,.08-1.79,17.54,17.54,0,0,1-.08-1.8V68H54.19V84.88h26Q74.13,84.88,70.68,81.38Z"/><polygon points="208.28 67.97 156.76 67.97 148.91 84.88 200.4 84.88 208.28 67.97"/><path d="M89.35,84.88H101.6V76.63a11.33,11.33,0,0,1-2.79,4.75Q95.38,84.88,89.35,84.88Z"/><path d="M96.51,68H73l-.15.3h0a6,6,0,0,0,1.38,2,8.35,8.35,0,0,0,5.93,1.94h9.21a8.34,8.34,0,0,0,5.93-1.94,6,6,0,0,0,1.39-2,7.69,7.69,0,0,1,.52,1.8h0a7.47,7.47,0,0,0-.52-1.79C96.62,68.17,96.57,68.07,96.51,68Z"/><path class="cls-1" d="M95.28,70.24a8.34,8.34,0,0,1-5.93,1.94H80.14a8.35,8.35,0,0,1-5.93-1.94,6,6,0,0,1-1.38-2,7.7,7.7,0,0,0-.53,1.8h0a6.5,6.5,0,0,0,1.91,3.76,8.35,8.35,0,0,0,5.93,1.94h9.21a8.34,8.34,0,0,0,5.93-1.94,6.44,6.44,0,0,0,1.91-3.76,7.69,7.69,0,0,0-.52-1.8A6,6,0,0,1,95.28,70.24Z"/><path class="cls-2" d="M101.6,76.63a16.52,16.52,0,0,0,.65-4.77c0-.62,0-1.21-.08-1.79a15.07,15.07,0,0,1-.57,3Z"/><path class="cls-2" d="M98.81,77.79q-3.44,3.49-9.46,3.5H80.14q-6,0-9.46-3.5a12.26,12.26,0,0,1-3.35-7.72,17.34,17.34,0,0,0-.08,1.79q0,6,3.43,9.52t9.46,3.5h9.21q6,0,9.46-3.5a11.33,11.33,0,0,0,2.79-4.75V73A11.36,11.36,0,0,1,98.81,77.79Z"/><path d="M101.6,73a15.07,15.07,0,0,0,.57-3c0-.58.08-1.18.08-1.8V68h-.65Z"/><path d="M80.14,81.29h9.21q6,0,9.46-3.5A11.36,11.36,0,0,0,101.6,73V68H97.33c0,.1,0,.2,0,.3a10.24,10.24,0,0,1-.15,1.8h0a6.44,6.44,0,0,1-1.91,3.76,8.34,8.34,0,0,1-5.93,1.94H80.14a8.35,8.35,0,0,1-5.93-1.94,6.5,6.5,0,0,1-1.91-3.76,10.27,10.27,0,0,1-.14-1.8V68H67.25v.3a17.54,17.54,0,0,0,.08,1.8,12.26,12.26,0,0,0,3.35,7.72Q74.13,81.29,80.14,81.29Z"/><path class="cls-2" d="M97.33,68h-.82c.06.1.11.2.16.3a7.47,7.47,0,0,1,.52,1.79,10,10,0,0,0,.15-1.79C97.34,68.17,97.34,68.07,97.33,68Z"/><path class="cls-2" d="M72.16,68.27a10.27,10.27,0,0,0,.14,1.8,7.42,7.42,0,0,1,.53-1.8h0L73,68h-.82Z"/><path class="cls-2" d="M72.3,70.07h0a7.7,7.7,0,0,1,.53-1.8h0A7.42,7.42,0,0,0,72.3,70.07Z"/><path class="cls-2" d="M72.54,65.48c0-.08,0-.15.07-.23C72.59,65.33,72.56,65.4,72.54,65.48Z"/><path class="cls-2" d="M96.82,65.07c0-.1-.08-.21-.13-.31a.36.36,0,0,1,0,.09Z"/><path class="cls-2" d="M97.34,68.27a10,10,0,0,1-.15,1.79h0a10.24,10.24,0,0,0,.15-1.8c0-.1,0-.2,0-.3h0C97.34,68.07,97.34,68.17,97.34,68.27Z"/><path class="cls-2" d="M96.9,65.3l.06.19Z"/><path class="cls-2" d="M97.08,65.91v0Z"/><path class="cls-1" d="M101.64,44.2h0v3.59h0V59.92a16.45,16.45,0,0,1,.65,4.76c0,.42,0,.83,0,1.23H112V38.67H101.64Z"/><polygon class="cls-1" points="209.23 65.91 219.61 65.91 232.3 38.67 221.92 38.67 209.23 65.91"/><rect class="cls-2" x="43.82" y="38.67" width="10.38" height="27.24"/><polygon class="cls-2" points="170.37 38.67 159.99 38.67 147.34 65.91 157.72 65.91 170.37 38.67"/><path d="M67.25,64.68q0-6,3.43-9.52t9.4-3.5h9.27q6,0,9.46,3.5a11.3,11.3,0,0,1,2.79,4.76V47.79H67.86V44.2h0V38.67H54.19V65.91H67.28Q67.25,65.31,67.25,64.68Z"/><polygon points="221.92 38.67 170.37 38.67 157.72 65.91 209.23 65.91 221.92 38.67"/><path d="M75.36,61.87a6,6,0,0,0-1.15.85l-.16.15L73.9,63l0,0c.11-.12.22-.24.34-.35A6,6,0,0,1,75.36,61.87Z"/><path d="M89.35,64.37H80.14a8.71,8.71,0,0,0-5.45,1.54H94.8A8.69,8.69,0,0,0,89.35,64.37Z"/><path d="M72.76,64.85a2.77,2.77,0,0,0-.1.26s0,.09,0,.14a7.18,7.18,0,0,1,.54-1.19A6.45,6.45,0,0,0,72.76,64.85Z"/><path d="M96.65,64.65l-.1-.21h0a2,2,0,0,1,.15.33S96.66,64.68,96.65,64.65Z"/><path d="M73.8,63.15l-.2.23,0,.06c-.06.08-.13.17-.18.25l0,0a1.63,1.63,0,0,1-.11.17v0a5.7,5.7,0,0,1,.59-.78Z"/><path class="cls-1" d="M102.11,65.91h.1c0-.4,0-.81,0-1.23a16.45,16.45,0,0,0-.65-4.76v3.6A14.64,14.64,0,0,1,102.11,65.91Z"/><path class="cls-1" d="M89.35,51.66H80.08q-6,0-9.4,3.5t-3.43,9.52q0,.63,0,1.23h.11a12.13,12.13,0,0,1,3.29-7.16q3.45-3.49,9.4-3.5h9.27q6,0,9.46,3.5a11.34,11.34,0,0,1,2.79,4.77v-3.6a11.3,11.3,0,0,0-2.79-4.76Q95.38,51.67,89.35,51.66Z"/><rect class="cls-2" x="101.6" y="44.2" width="0.04" height="3.59"/><rect class="cls-2" x="67.86" y="44.2" width="33.74" height="3.59"/><path d="M102.11,65.91a14.64,14.64,0,0,0-.51-2.39v2.39Z"/><path d="M72.43,65.85l.06-.22a.88.88,0,0,1,.05-.15c0-.08,0-.15.07-.23s0-.1,0-.14a2.77,2.77,0,0,1,.1-.26,6.45,6.45,0,0,1,.39-.79l.09-.16v0a1.63,1.63,0,0,0,.11-.17l0,0c.05-.08.12-.17.18-.25l0-.06.2-.23,0,0,0,0,0,0,.15-.17.16-.15a6,6,0,0,1,1.15-.85,9.39,9.39,0,0,1,4.78-1.09h9.21a8.29,8.29,0,0,1,5.93,1.94,5.79,5.79,0,0,1,1.26,1.71h0l.1.21s0,.07,0,.11.09.21.13.31a.88.88,0,0,1,.05.15,0,0,0,0,1,0,0,.08.08,0,0,1,0,0l.06.19c0,.05,0,.09,0,.14s0,.15.06.22,0,0,0,0v0h4.52V63.52a11.34,11.34,0,0,0-2.79-4.77q-3.44-3.49-9.46-3.5H80.08q-6,0-9.4,3.5a12.13,12.13,0,0,0-3.29,7.16h5S72.43,65.87,72.43,65.85Z"/><path class="cls-2" d="M74.69,65.91a8.71,8.71,0,0,1,5.45-1.54h9.21a8.69,8.69,0,0,1,5.45,1.54h2.28v0c0-.14-.07-.27-.11-.4l-.06-.19a2.09,2.09,0,0,0-.08-.23l-.09-.22a.36.36,0,0,0,0-.09,2,2,0,0,0-.15-.33l0-.09a6,6,0,0,0-1.22-1.62,8.29,8.29,0,0,0-5.93-1.94H80.14a9.39,9.39,0,0,0-4.78,1.09,6,6,0,0,0-1.15.85c-.12.11-.23.23-.34.35l0,0a5.7,5.7,0,0,0-.59.78l-.09.16a7.18,7.18,0,0,0-.54,1.19c0,.08,0,.15-.07.23s-.09.28-.12.43Z"/><path class="cls-2" d="M73.83,63.12l0,0Z"/><path class="cls-2" d="M73.15,64.06l.09-.16Z"/><path class="cls-2" d="M89.35,60.78a8.29,8.29,0,0,1,5.93,1.94,6,6,0,0,1,1.22,1.62l0,.09a5.79,5.79,0,0,0-1.26-1.71,8.29,8.29,0,0,0-5.93-1.94H80.14a9.39,9.39,0,0,0-4.78,1.09,9.39,9.39,0,0,1,4.78-1.09Z"/><polygon points="101.6 38.67 101.6 44.2 101.64 44.2 101.64 38.67 101.63 38.67 101.6 38.67"/><polygon points="80.14 38.67 74.31 38.67 72.8 38.67 68.56 38.67 67.86 38.67 67.86 44.2 101.6 44.2 101.6 38.67 80.14 38.67"/><rect x="101.6" y="18.52" width="0.04"/><path d="M74.09,36.7l0,0h0l0,0a6.31,6.31,0,0,1-1.29-1.62h0A6.31,6.31,0,0,0,74.09,36.7Z"/><path d="M101.6,18.52H78.91A13.1,13.1,0,0,0,72.6,20a13.1,13.1,0,0,1,6.31-1.43Z"/><polygon class="cls-1" points="101.63 18.52 101.64 18.52 101.64 24.05 101.64 27.64 101.6 27.64 101.6 35.08 101.63 35.08 101.63 36.73 111.98 36.73 111.98 18 101.63 18 101.63 18.52"/><polygon class="cls-1" points="222.83 36.73 233.21 36.73 241.92 18 231.54 18 222.83 36.73"/><rect class="cls-2" x="43.82" y="18" width="10.38" height="18.72"/><polygon class="cls-2" points="179.96 18 169.58 18 160.89 36.73 171.27 36.73 179.96 18"/><path d="M67.25,33.23a13.23,13.23,0,0,1,.11-1.81,12.7,12.7,0,0,1-.11-1.78,13.23,13.23,0,0,1,.11-1.81,10.09,10.09,0,0,1,3-6.3A10.34,10.34,0,0,1,72.6,20a10.34,10.34,0,0,0-2.19,1.58,10.15,10.15,0,0,0-3.06,6.3,14.36,14.36,0,0,1-.1-1.78,10.67,10.67,0,0,1,3.1-8H54.19V36.72H67.71A12.14,12.14,0,0,1,67.25,33.23Z"/><polygon points="231.54 18 179.96 18 171.27 36.73 222.83 36.73 231.54 18"/><path d="M73.94,29.58a6.07,6.07,0,0,0-1.26,1.68h0a6.28,6.28,0,0,0,1.41,1.84,8.68,8.68,0,0,0,6,2H101.6V27.64H79.53A7.76,7.76,0,0,0,73.94,29.58Z"/><path d="M72.8,35.08h1.51V35a10,10,0,0,1-1.73-.38c.07.15.14.3.22.44Z"/><path class="cls-1" d="M101.6,18.52V18H70.35a10.67,10.67,0,0,0-3.1,8.05,14.36,14.36,0,0,0,.1,1.78,10.15,10.15,0,0,1,3.06-6.3A10.34,10.34,0,0,1,72.6,20a13.1,13.1,0,0,1,6.31-1.43Z"/><path class="cls-1" d="M74.09,33.11a6.28,6.28,0,0,1-1.41-1.84,7,7,0,0,0-.6,1.78,7.2,7.2,0,0,0,.5,1.59h0a10,10,0,0,0,1.73.38v.06H72.8a6.31,6.31,0,0,0,1.29,1.62l0,0H101.6V35.08H80.14A8.68,8.68,0,0,1,74.09,33.11Z"/><rect class="cls-2" x="101.6" y="24.05" width="0.04" height="3.59"/><path class="cls-2" d="M79.53,24.05A7.76,7.76,0,0,0,73.94,26a6.28,6.28,0,0,0-1.86,3.47,9.12,9.12,0,0,0-.17,1.78,9.32,9.32,0,0,0,.17,1.8,6.91,6.91,0,0,1,.6-1.78h0a6.07,6.07,0,0,1,1.26-1.68,7.76,7.76,0,0,1,5.59-1.94H101.6V24.05Z"/><path class="cls-2" d="M72.68,31.27h0a6.91,6.91,0,0,0-.6,1.78h0A7,7,0,0,1,72.68,31.27Z"/><path class="cls-2" d="M69.09,35.84a6.86,6.86,0,0,1-.53-.76,9.14,9.14,0,0,1-1.2-3.66,13.23,13.23,0,0,0-.11,1.81,12.14,12.14,0,0,0,.46,3.49h2.21A6.3,6.3,0,0,1,69.09,35.84Z"/><polygon points="101.6 18.52 101.6 24.05 101.64 24.05 101.64 18.52 101.63 18.52 101.63 18.52 101.6 18.52"/><path d="M69.09,35.84a6.3,6.3,0,0,0,.83.88h4.2l0,0a6.31,6.31,0,0,1-1.29-1.62h0c-.08-.14-.15-.29-.22-.44h0a7.2,7.2,0,0,1-.5-1.59h0a9.32,9.32,0,0,1-.17-1.8,9.12,9.12,0,0,1,.17-1.78A6.28,6.28,0,0,1,73.94,26a7.76,7.76,0,0,1,5.59-1.94H101.6V18.52H78.91A13.1,13.1,0,0,0,72.6,20a10.34,10.34,0,0,0-2.19,1.58,10.09,10.09,0,0,0-3,6.3,13.23,13.23,0,0,0-.11,1.81,12.7,12.7,0,0,0,.11,1.78,9.14,9.14,0,0,0,1.2,3.66A6.86,6.86,0,0,0,69.09,35.84Z"/><path d="M72.58,34.64h0a7.2,7.2,0,0,1-.5-1.59h0A7.2,7.2,0,0,0,72.58,34.64Z"/><polygon class="cls-1" points="95.21 14.94 95.25 14.94 95.25 18 105.59 18 105.59 10.89 95.21 10.89 95.21 14.94"/><rect class="cls-2" x="37.43" y="10.89" width="10.38" height="7.11"/><path d="M64,17.94a11.84,11.84,0,0,1,8.5-3H95.21v-4H47.81V18H64Z"/><rect class="cls-1" x="95.21" y="14.94" width="0.04" height="3.07"/><path class="cls-1" d="M64,17.94,64,18H95.21V14.94H72.52A11.84,11.84,0,0,0,64,17.94Z"/><polygon class="cls-1" points="225.16 18 235.54 18 238.85 10.89 228.47 10.89 225.16 18"/><polygon class="cls-2" points="176.88 10.89 166.5 10.89 163.19 18 173.58 18 176.88 10.89"/><polygon points="228.47 10.89 176.88 10.89 173.58 18 225.16 18 228.47 10.89"/><path d="M79,38.62l.27,0Z"/><polygon points="77.48 38.39 77.47 38.39 77.48 38.4 77.48 38.39"/><path d="M74.31,38.67h0V38.6a9.13,9.13,0,0,1-1.73-.37h0a10,10,0,0,0,1.73.38Z"/><path class="cls-1" d="M74.31,38.67v-.06a10,10,0,0,1-1.73-.38,3.68,3.68,0,0,0,.23.44Z"/><path class="cls-2" d="M72.58,38.23h0c.07.15.14.3.22.44h0A3.68,3.68,0,0,1,72.58,38.23Z"/><rect x="101.63" y="38.67"/><polygon points="72.8 38.67 72.8 38.67 68.56 38.67 68.56 38.67 68.56 38.67 72.8 38.67"/><rect x="101.6" y="38.67" width="0.04"/><path d="M76.06,37.94a.94.94,0,0,0,.15.06l0,0,.09,0,.08,0,.23.09.13,0,.3.08.39.1A8.31,8.31,0,0,1,76,37.92h0Z"/><polygon points="72.81 38.67 72.8 38.67 72.8 38.67 74.31 38.67 74.31 38.67 72.81 38.67"/><path d="M78,38.49l.3,0,.13,0h0l.28,0,.31,0a10.57,10.57,0,0,1-1.54-.22l.3.06Z"/><path d="M79.29,38.64c.28,0,.56,0,.85,0h0C79.85,38.67,79.57,38.66,79.29,38.64Z"/><polygon points="68.56 38.67 67.86 38.67 67.86 38.67 68.56 38.67 68.56 38.67"/><polygon class="cls-1" points="108.58 38.67 108.58 38.67 108.58 38.67 118.92 38.67 118.92 36.73 108.58 36.73 108.58 38.67"/><rect class="cls-2" x="50.76" y="36.72" width="10.38" height="1.95"/><path d="M74.8,37.18a7.87,7.87,0,0,0,.71,1.49h0a7.87,7.87,0,0,1-.71-1.49c0-.15-.1-.3-.14-.46H61.14v2H74.8Z"/><path d="M75.92,37.88l.09,0Z"/><rect class="cls-1" x="108.54" y="36.72" width="0.04" height="1.95"/><path class="cls-1" d="M83,37.92a8.42,8.42,0,0,0,1.47.47h0a10.38,10.38,0,0,0,1.54.22l.26,0c.28,0,.56,0,.85,0h21.46v-2H81.07a6.47,6.47,0,0,0,1.8,1.16Z"/><path class="cls-1" d="M75.51,38.67a7.87,7.87,0,0,1-.71-1.49v1.49h.71Z"/><path class="cls-2" d="M79.52,38.23h0a7.21,7.21,0,0,1-2.66-1.51h-2.2c0,.16.09.31.14.46a7.87,7.87,0,0,0,.71,1.49h4.24A3.68,3.68,0,0,1,79.52,38.23Z"/><path d="M86,38.62l-.32,0-.27,0h0l-.13,0-.3,0-.18,0-.29-.06h0l-.4-.1-.29-.08-.14,0-.23-.09-.07,0-.1,0,0,0a.59.59,0,0,1-.14-.06H83l-.08,0h0c-.2-.09-.39-.19-.58-.29l-.31-.19a6.27,6.27,0,0,1-.59-.42,3.47,3.47,0,0,1-.29-.25h-4.2a7.21,7.21,0,0,0,2.66,1.51,9.3,9.3,0,0,0,1.73.37v.07h5.83c-.29,0-.57,0-.85,0Z"/><path d="M81.35,37a6.27,6.27,0,0,0,.59.42l.31.19c.19.1.38.2.58.29h0a6.47,6.47,0,0,1-1.8-1.16h0A3.47,3.47,0,0,0,81.35,37Z"/><polygon class="cls-1" points="228.86 38.67 239.24 38.67 240.15 36.73 229.77 36.73 228.86 38.67"/><polygon class="cls-2" points="178.21 36.73 167.84 36.73 166.93 38.67 177.31 38.67 178.21 36.73"/><polygon points="229.77 36.73 178.21 36.73 177.31 38.67 228.86 38.67 229.77 36.73"/><path d="M72.23,67l0,.25v0l0-.3Z"/><path d="M72.18,67.49c0,.05,0,.11,0,.17v0c0-.08,0-.16,0-.24S72.18,67.48,72.18,67.49Z"/><path d="M72.16,67.9V68h0Z"/><path class="cls-2" d="M72.16,67.9a1.21,1.21,0,0,0,0-.19A1.21,1.21,0,0,1,72.16,67.9Z"/><path class="cls-2" d="M72.2,67.26c0,.07,0,.14,0,.21h0C72.19,67.39,72.2,67.32,72.2,67.26Z"/><path class="cls-2" d="M72.23,67s0-.07,0-.11S72.24,66.92,72.23,67Z"/><path class="cls-1" d="M112.17,66.48c0,.48.07,1,.08,1.49H122V65.91h-9.77C112.2,66.1,112.19,66.29,112.17,66.48Z"/><rect class="cls-2" x="53.81" y="65.91" width="10.38" height="2.06"/><path d="M82.42,65.91h0a4.78,4.78,0,0,0-.12.57,3.48,3.48,0,0,0,0,.36h0c0-.13,0-.25,0-.37A4.78,4.78,0,0,1,82.42,65.91Z"/><path d="M104.8,65.91H84.69a4.54,4.54,0,0,0-.48.39A6.17,6.17,0,0,0,83,68h23.53a6,6,0,0,0-1.23-1.67A4.54,4.54,0,0,0,104.8,65.91Z"/><path d="M77.33,66.48c0-.19,0-.38,0-.57H64.19V68H77.25C77.26,67.46,77.28,67,77.33,66.48Z"/><path class="cls-1" d="M112.17,66.48c0-.19,0-.38,0-.57h-.1Z"/><path class="cls-1" d="M77.28,65.91c0,.19,0,.38,0,.57,0-.19,0-.38.06-.57Z"/><path d="M111.6,65.91V68h.65c0-.51,0-1-.08-1.49l-.06-.57Z"/><path d="M82.16,67.9a1.21,1.21,0,0,0,0-.19v0c0-.06,0-.12,0-.17s0,0,0,0,0-.14,0-.21v0l0-.25v0s0-.07,0-.11h0a3.48,3.48,0,0,1,0-.36,4.78,4.78,0,0,1,.12-.57h-5c0,.19,0,.38-.06.57,0,.48-.07,1-.08,1.49h4.91Z"/><path d="M107.19,66.48a9.8,9.8,0,0,1,.14,1.49h4.27V65.91h-4.52C107.12,66.09,107.16,66.28,107.19,66.48Z"/><path class="cls-2" d="M105.28,66.3A6,6,0,0,1,106.51,68h.82c0-.11,0-.21,0-.31s0-.12,0-.17v0c0-.08,0-.15,0-.22a1.9,1.9,0,0,0,0-.25.77.77,0,0,0,0-.15,3.48,3.48,0,0,0,0-.36c0-.2-.07-.39-.11-.57H104.8A4.54,4.54,0,0,1,105.28,66.3Z"/><path class="cls-2" d="M83,68a6.17,6.17,0,0,1,1.23-1.67,4.54,4.54,0,0,1,.48-.39H82.42a4.78,4.78,0,0,0-.12.57c0,.12,0,.24,0,.37s0,.07,0,.11l0,.3a1.27,1.27,0,0,0,0,.2h0a1.94,1.94,0,0,0,0,.24,1.21,1.21,0,0,1,0,.19V68Z"/><path class="cls-2" d="M107.08,65.91h0c0,.18.08.37.11.57a3.48,3.48,0,0,1,0,.36.77.77,0,0,1,0,.15,1.9,1.9,0,0,1,0,.25c0,.07,0,.14,0,.22v0c0,.05,0,.11,0,.17s0,.2,0,.31h0a9.8,9.8,0,0,0-.14-1.49C107.16,66.28,107.12,66.09,107.08,65.91Z"/><polygon class="cls-1" points="218.27 67.97 228.65 67.97 229.61 65.91 219.23 65.91 218.27 67.97"/><polygon class="cls-2" points="167.72 65.91 157.34 65.91 156.38 67.97 166.76 67.97 167.72 65.91"/><polygon points="219.23 65.91 167.72 65.91 166.76 67.97 218.27 67.97 219.23 65.91"/><rect class="cls-1" x="91.32" y="88.63" width="0.04" height="3.59"/><path class="cls-1" d="M96.6,97.84c0,.19,0,.37,0,.54h0Z"/><polygon class="cls-1" points="86.32 92.22 86.32 92.22 86.32 92.22 91.32 92.22 91.32 88.63 86.32 88.63 86.32 92.22"/><polygon class="cls-1" points="62.62 91.61 62.62 88.02 57.58 88.02 57.58 91.61 57.59 91.61 57.59 91.61 62.62 91.61"/><rect x="91.32" y="92.22" width="0.04"/><rect x="86.32" y="92.22" width="5"/><rect x="57.58" y="91.61" width="5.03"/><polygon class="cls-1" points="91.32 88.63 91.36 88.63 91.36 92.22 91.36 92.22 91.36 98.38 101.7 98.38 101.7 84.88 91.32 84.88 91.32 88.63"/><rect class="cls-2" x="33.54" y="84.88" width="10.38" height="13.49"/><path d="M57.58,91.61h0V88h5v3.59h0v6.77H86.3a4.7,4.7,0,0,0,0-.54v.54h0V92.22h0V88.63h5V84.88H43.92v13.5H57.58Z"/><polygon points="91.32 92.22 91.32 98.38 91.36 98.38 91.36 92.22 91.36 92.22 91.36 92.22 91.32 92.22"/><polygon points="62.62 91.61 62.62 91.61 62.62 91.61 57.59 91.61 57.59 98.38 62.62 98.38 62.62 91.61"/><rect x="86.32" y="92.22" width="5" height="6.15"/><polygon class="cls-1" points="183.84 98.38 194.22 98.38 200.5 84.88 190.12 84.88 183.84 98.38"/><polygon class="cls-2" points="138.63 84.88 128.25 84.88 121.99 98.38 132.37 98.38 138.63 84.88"/><polygon points="138.63 84.88 132.37 98.38 183.84 98.38 190.12 84.88 138.63 84.88"/><path d="M97.18,140.12v0h0Z"/><path class="cls-1" d="M67.34,140.09h0a.19.19,0,0,0,0,.08Z"/><path class="cls-1" d="M102.17,140.17s0,0,0-.08h0Z"/><path class="cls-2" d="M102.17,143.76a14.71,14.71,0,0,1-.31,2h.39v-.15C102.25,144.94,102.22,144.34,102.17,143.76Z"/><path class="cls-2" d="M67.33,143.76a17.54,17.54,0,0,0-.08,1.8v.15h.38A14.72,14.72,0,0,1,67.33,143.76Z"/><polygon class="cls-1" points="186.25 145.71 196.63 145.71 194.1 140.09 183.72 140.09 186.25 145.71"/><rect class="cls-2" x="49.65" y="140.09" width="10.38" height="5.62"/><path d="M108,140.09a.19.19,0,0,1,0,.08,17.54,17.54,0,0,1,.08,1.8,17.22,17.22,0,0,1-.08,1.79,17.54,17.54,0,0,1,.08,1.8v.15h78.17l-2.53-5.62Z"/><path d="M73.16,143.76c0-.57-.08-1.17-.08-1.79s0-1.22.08-1.8c0,0,0,0,0-.08H60v5.62h13v-.15C73.08,144.94,73.11,144.34,73.16,143.76Z"/><path d="M78,142a11.33,11.33,0,0,1,.14-1.8.24.24,0,0,0,0-.08h0s0,.06,0,.08a11.58,11.58,0,0,0,0,3.59h0A11.3,11.3,0,0,1,78,142Z"/><path d="M101.2,140.09H80A6.17,6.17,0,0,0,78.66,142h0a6.25,6.25,0,0,0,1.38,2,7.28,7.28,0,0,0,3.89,1.77H97.22a7.21,7.21,0,0,0,3.89-1.77,6.12,6.12,0,0,0,1.39-2,8,8,0,0,1,.53,1.79h0a8,8,0,0,0-.53-1.79A6,6,0,0,0,101.2,140.09Z"/><path class="cls-1" d="M80,143.94a6.25,6.25,0,0,1-1.38-2,8,8,0,0,0-.53,1.79h0a8.09,8.09,0,0,0,.6,2h5.2A7.28,7.28,0,0,1,80,143.94Z"/><path class="cls-1" d="M101.11,143.94a7.21,7.21,0,0,1-3.89,1.77h5.2a7.67,7.67,0,0,0,.61-2,8,8,0,0,0-.53-1.79A6.12,6.12,0,0,1,101.11,143.94Z"/><path d="M78.13,143.76a11.58,11.58,0,0,1,0-3.59s0,0,0-.08h-5v.08c0,.58-.08,1.18-.08,1.8s0,1.22.08,1.79a14.72,14.72,0,0,0,.3,2h5.27A8.09,8.09,0,0,1,78.13,143.76Z"/><path d="M103,140.09v0a.07.07,0,0,0,0,0,11.58,11.58,0,0,1,0,3.59h0a7.67,7.67,0,0,1-.61,2h5.28a14.72,14.72,0,0,0,.3-2,17.22,17.22,0,0,0,.08-1.79,17.54,17.54,0,0,0-.08-1.8v-.08Z"/><path class="cls-2" d="M78.13,140.17a11.58,11.58,0,0,0,0,3.59,8,8,0,0,1,.53-1.79h0A6.17,6.17,0,0,1,80,140.09h-1.8A.24.24,0,0,1,78.13,140.17Z"/><path class="cls-2" d="M101.2,140.09a6,6,0,0,1,1.3,1.88,8,8,0,0,1,.53,1.79,11.58,11.58,0,0,0,0-3.59.07.07,0,0,1,0,0v0Z"/><path class="cls-2" d="M78.13,143.76h0a8,8,0,0,1,.53-1.79h0A8,8,0,0,0,78.13,143.76Z"/><path class="cls-2" d="M103.17,142a11.3,11.3,0,0,1-.14,1.79h0a11.58,11.58,0,0,0,0-3.59.07.07,0,0,1,0,0,.07.07,0,0,0,0,0A11.33,11.33,0,0,1,103.17,142Z"/><path d="M77.48,185.79Z"/><path d="M76.74,185.58l-.07,0Z"/><path d="M68.19,185.35a.84.84,0,0,0,.06.14s0,0,0,0l0,.07.06.12,0,0a.64.64,0,0,0,.08.14v0h0A5.28,5.28,0,0,1,68.19,185.35Z"/><path d="M73,185.74l.1,0,.31.08h0a7.21,7.21,0,0,1-.83-.22h0Z"/><path d="M73.59,185.88h0l-.11,0,.1,0Z"/><path class="cls-1" d="M73.07,185.76l-.1,0-.39-.12c0,.09.09.17.13.26h.87l-.1,0-.07,0h0Z"/><polygon class="cls-2" points="72.68 178.66 72.68 178.66 72.68 178.66 72.68 178.66"/><path class="cls-2" d="M68.12,185.2a.69.69,0,0,0,.07.15l0,0A.5.5,0,0,1,68.12,185.2Z"/><path class="cls-2" d="M72.58,185.62h0l.12.26h0C72.67,185.79,72.62,185.71,72.58,185.62Z"/><path d="M73.41,185.84l.07,0Z"/><path d="M78,185.88l-.49-.09.3.06.14,0h0Z"/><path d="M76.83,185.61l.28.08.37.1h0c-.26-.06-.5-.13-.74-.21Z"/><polygon class="cls-1" points="111.32 182.47 111.36 182.47 111.36 185.88 121.7 185.88 121.7 178.66 111.32 178.66 111.32 182.47"/><rect class="cls-2" x="53.54" y="178.66" width="10.38" height="7.22"/><path d="M75.31,185l0,0Z"/><path d="M74.72,184.59l-.09-.06Z"/><path d="M68,185a.05.05,0,0,0,0,0,.35.35,0,0,0,.06.14h0l0,0A1.47,1.47,0,0,1,68,185Z"/><path d="M66.53,185.88v-3.41H77.08l.06.38,0,.17c0,.17.06.33.1.49l.09.37v0c0,.06,0,.13,0,.19a1.59,1.59,0,0,0,.07.2v0a9.45,9.45,0,0,1-.41-1.85,13.59,13.59,0,0,1-.12-1.85,13.23,13.23,0,0,1,.11-1.81c0-.05,0-.1,0-.15H63.92v7.22Z"/><path d="M67.83,184.48c0,.1.07.2.11.3v0c0-.11-.08-.22-.12-.32Z"/><path d="M84,182.41A9.12,9.12,0,0,1,82.3,182c.07.15.14.3.22.44H84Z"/><path d="M82.4,178.66a6.15,6.15,0,0,0,1.41,1.84,8.68,8.68,0,0,0,6,2h21.46v-3.81Z"/><rect class="cls-1" x="111.32" y="182.47" width="0.04" height="3.41"/><path class="cls-1" d="M78.17,185.86a.64.64,0,0,1-.08-.14s0,0,0,0a.75.75,0,0,1-.07-.12l0-.07v0l-.06-.14a.69.69,0,0,1-.07-.15l0,0h0l-.06-.14a.05.05,0,0,1,0,0h0l-.07-.18v0c0-.1-.08-.2-.11-.3h0a1.42,1.42,0,0,1,0-.16v0a1.59,1.59,0,0,1-.07-.2c0-.06,0-.13,0-.19v0l-.09-.37c0-.16-.07-.32-.1-.49l0-.17-.06-.38H66.53v3.41H78.18Z"/><path class="cls-1" d="M83.81,180.5a6.15,6.15,0,0,1-1.41-1.84,7,7,0,0,0-.6,1.78,7.2,7.2,0,0,0,.5,1.59h0a9.12,9.12,0,0,0,1.73.38v.06H82.52a6.31,6.31,0,0,0,1.29,1.62c.18.16.36.3.54.44l.09.06c.17.12.36.24.55.35l0,0a8,8,0,0,0,1.36.59l.07,0c.24.08.48.15.74.21h0l.49.09h23.63v-3.41H89.86A8.68,8.68,0,0,1,83.81,180.5Z"/><path class="cls-2" d="M81.64,178.66a9.21,9.21,0,0,0,.16,1.78,7,7,0,0,1,.6-1.78Z"/><path class="cls-2" d="M82.4,178.66h0a7,7,0,0,0-.6,1.78h0A7,7,0,0,1,82.4,178.66Z"/><path class="cls-2" d="M77.67,184.8a1.34,1.34,0,0,0,.07.18,1.47,1.47,0,0,0,.1.22.52.52,0,0,0,.06.13v0a5.28,5.28,0,0,0,.27.53h4.24l-.12-.26h0a7,7,0,0,1-3.49-2.39,6.86,6.86,0,0,1-.53-.76,9.14,9.14,0,0,1-1.2-3.66,13.23,13.23,0,0,0-.11,1.81,13.59,13.59,0,0,0,.12,1.85,9.45,9.45,0,0,0,.41,1.85,1.42,1.42,0,0,0,0,.16Z"/><path class="cls-2" d="M67.78,184.32a1.42,1.42,0,0,0,0,.16A1.42,1.42,0,0,1,67.78,184.32Z"/><path class="cls-2" d="M68,185a1.34,1.34,0,0,1-.07-.18Z"/><path d="M78.28,182.47a6.86,6.86,0,0,0,.53.76,7,7,0,0,0,3.49,2.39,7.21,7.21,0,0,0,.83.22l.07,0,.11,0h4.33l-.14,0-.3-.06h0l-.36-.1-.29-.08-.09,0-.07,0h0l-.23-.08-.11,0-.33-.14-.35-.16a1.91,1.91,0,0,1-.28-.15h0l0,0,0,0-.18-.11-.11-.06-.21-.15-.09-.06-.09-.07-.2-.15-.25-.22a6.31,6.31,0,0,1-1.29-1.62h0c-.08-.14-.15-.29-.22-.44h0a7.2,7.2,0,0,1-.5-1.59h0a9.21,9.21,0,0,1-.16-1.78H77.06c0,.05,0,.1,0,.15A9.14,9.14,0,0,0,78.28,182.47Z"/><path d="M82.52,182.47h0a6.31,6.31,0,0,0,1.29,1.62l.25.22.2.15.09.07c-.18-.14-.36-.28-.54-.44A6.31,6.31,0,0,1,82.52,182.47Z"/><path d="M81.8,180.44h0a7.2,7.2,0,0,0,.5,1.59h0A7.2,7.2,0,0,1,81.8,180.44Z"/><path d="M74.93,184.74l.1.06.19.11,0,0c-.19-.11-.38-.23-.55-.35Z"/><path d="M75.34,185a1.91,1.91,0,0,0,.28.15l.34.16.34.14.11,0,.22.08h0a8,8,0,0,1-1.36-.59Z"/><polygon class="cls-1" points="208.21 185.88 218.59 185.88 215.34 178.66 204.96 178.66 208.21 185.88"/><polygon class="cls-2" points="152.38 178.66 142 178.66 145.24 185.88 155.62 185.88 152.38 178.66"/><polygon points="204.96 178.66 152.38 178.66 155.62 185.88 208.21 185.88 204.96 178.66"/><path d="M59.82,220.2c0,.08,0,.15.07.23,0-.08,0-.16-.07-.25Z"/><path d="M67.74,219.71v0Z"/><path d="M60,220.78a.49.49,0,0,0,.06.17.14.14,0,0,0,0,.07c0-.11-.08-.22-.11-.33Z"/><path d="M88.46,219.39a6.37,6.37,0,0,1-.86,1.3,6.37,6.37,0,0,0,.86-1.3Z"/><path d="M60.59,222.21c.07.13.13.26.2.38s.13.24.2.36a.56.56,0,0,0,0,.08c-.17-.29-.33-.58-.48-.89Z"/><path d="M69.14,223.12l.14.22,0,.06h0l-.22-.35Z"/><path d="M89.35,219.57a11.57,11.57,0,0,0,2.1-.18H78a10.94,10.94,0,0,0,2,.18Z"/><path d="M69.43,223.57l0,0c0,.09.11.17.17.26h0Z"/><polygon points="93.54 220.28 93.54 220.28 93.54 220.28 93.54 220.28"/><path d="M93.55,220.27a.19.19,0,0,1,0-.07c0-.14.08-.29.11-.44s.07-.25.1-.37h-.24v.88Z"/><path d="M87.56,220.74l0-.05Z"/><path d="M93.57,220.2a.19.19,0,0,0,0,.07h0c.09-.29.17-.59.24-.89h0c0,.12-.06.25-.1.37S93.61,220.06,93.57,220.2Z"/><path d="M59.7,219.73h0c0,.15.08.3.13.45a.84.84,0,0,1,0-.17A2.29,2.29,0,0,1,59.7,219.73Z"/><path d="M59.89,220.43l.09.26,0-.07Z"/><path d="M69.43,223.57c0-.06-.07-.11-.1-.16S69.4,223.51,69.43,223.57Z"/><path d="M92.82,222.16c-.15.3-.3.59-.47.87s-.17.28-.26.41l-.1.15-.13.2a.21.21,0,0,1,0,.06h0A11.76,11.76,0,0,0,92.91,222Z"/><path d="M67.67,219.39h0c0,.1,0,.21.07.32h0C67.72,219.6,67.69,219.49,67.67,219.39Z"/><path d="M69.11,223.06l0,0Z"/><path d="M60.56,222.14v0Z"/><path d="M60.2,221.3c0-.09-.07-.19-.11-.28C60.13,221.11,60.16,221.21,60.2,221.3Z"/><path class="cls-1" d="M93.55,223.85h10.38v-4.46H94.19A16.78,16.78,0,0,1,93.55,223.85Z"/><rect class="cls-2" x="35.76" y="219.39" width="10.38" height="4.46"/><path d="M87.56,220.74c-.11.13-.24.26-.37.39a6.3,6.3,0,0,1-1.47,1.07,6.58,6.58,0,0,0,1.48-1.07C87.32,221,87.45,220.87,87.56,220.74Z"/><path d="M60.23,221.39s0,0,0,0,0,.07,0,.11h0s0,.07,0,.11-.09-.22-.13-.34Z"/><path d="M60.36,221.7h0l.15.32h0a.43.43,0,0,0,0,.07c-.08-.15-.15-.31-.22-.47Z"/><path d="M59.19,219.39h-13v4.46h13.7A16.77,16.77,0,0,1,59.19,219.39Z"/><path d="M93,221.8l0-.07a2.29,2.29,0,0,1-.1.23l0,0Z"/><path class="cls-1" d="M66.19,221.1A8,8,0,0,0,72,223.16H81.3a9.32,9.32,0,0,0,4.42-1,6.3,6.3,0,0,0,1.47-1.07c.13-.13.26-.26.37-.39l0-.05a6.37,6.37,0,0,0,.86-1.3H83.39a11.57,11.57,0,0,1-2.1.18H72a11.09,11.09,0,0,1-2-.18H65A6.57,6.57,0,0,0,66.19,221.1Z"/><path class="cls-2" d="M93.54,220.28h0v3.57h0a16.78,16.78,0,0,0,.64-4.46h-.41C93.71,219.69,93.63,220,93.54,220.28Z"/><path class="cls-2" d="M93,221.73l0,.07-.06.12,0,0a11.76,11.76,0,0,1-1.09,1.89h1.72v-3.57h0A11.35,11.35,0,0,1,93,221.73Z"/><path class="cls-2" d="M61.57,223.85l-.18-.26v0l-.11-.16h0l0-.06-.14-.22,0-.06,0,0a.56.56,0,0,1,0-.08c-.07-.12-.14-.24-.2-.36s-.13-.25-.2-.38l0-.07v0a.43.43,0,0,1,0-.07h0l-.15-.32h0l0-.06h0s0-.07,0-.11h0s0-.07,0-.11,0,0,0,0l0-.09c0-.09-.07-.19-.11-.28a.14.14,0,0,1,0-.07.49.49,0,0,1-.06-.17l0-.09-.09-.26c0-.08,0-.15-.07-.23v0c0-.15-.09-.3-.13-.45v0h0c0-.11,0-.22-.08-.32h-.42a16.77,16.77,0,0,0,.65,4.46Z"/><path d="M87.6,220.69l0,.05c-.11.13-.24.26-.36.39a6.58,6.58,0,0,1-1.48,1.07,9.33,9.33,0,0,1-4.43,1H72a8,8,0,0,1-5.83-2.06,6.84,6.84,0,0,1-1.25-1.71H59.61c0,.1,0,.21.08.31h0v0h0a2.29,2.29,0,0,0,.07.28.84.84,0,0,0,0,.17c0,.09,0,.17.07.25l.06.19,0,.07c0,.11.07.22.11.33s.07.19.11.28.09.23.13.34h0c.07.16.14.32.22.47v0c.15.31.31.6.48.89l0,0,.21.35.11.16.19.28H91.82a.21.21,0,0,0,0-.06l.13-.2.1-.15c.09-.13.18-.27.26-.41s.32-.57.47-.87l.09-.2a2.29,2.29,0,0,0,.1-.23,1.42,1.42,0,0,0,.08-.18c.12-.27.22-.56.32-.85,0-.14.09-.28.13-.42h0v-.88H88.46A6.37,6.37,0,0,1,87.6,220.69Z"/><path d="M72,223.16h9.27a9.33,9.33,0,0,0,4.43-1,9.32,9.32,0,0,1-4.42,1H72a8,8,0,0,1-5.83-2.06A6.57,6.57,0,0,1,65,219.39h0a6.84,6.84,0,0,0,1.25,1.71A8,8,0,0,0,72,223.16Z"/><path d="M93.54,220.28c0,.14-.09.28-.13.42-.1.29-.2.58-.32.85a1.42,1.42,0,0,1-.08.18,11.35,11.35,0,0,0,.53-1.45Z"/><path d="M60.33,221.64Z"/><polygon class="cls-1" points="207.53 223.84 217.9 223.84 215.9 219.39 205.52 219.39 207.53 223.84"/><polygon class="cls-2" points="152.88 219.39 142.5 219.39 144.5 223.84 154.88 223.84 152.88 219.39"/><polygon points="205.52 219.39 152.88 219.39 154.88 223.84 207.53 223.84 205.52 219.39"/><polygon class="cls-1" points="105.25 237.16 105.25 237.16 105.25 251.32 115.59 251.32 115.59 233.94 105.25 233.94 105.25 237.16"/><rect class="cls-2" x="47.43" y="233.94" width="10.38" height="17.38"/><path d="M58.27,251.28a4.91,4.91,0,0,1,.13-1.18,3.69,3.69,0,0,1,.91-1.71,3.27,3.27,0,0,1,.87-.67,3.27,3.27,0,0,0-.87.67,3.69,3.69,0,0,0-.91,1.71,5,5,0,0,1-.13-1.18v-1.23a4,4,0,0,1,1-2.89,3.58,3.58,0,0,1,2.7-1.1,3.37,3.37,0,0,1,2.64,1.1,4.17,4.17,0,0,1,1,2.89v1.23a5.65,5.65,0,0,1-.12,1.19h0a5.39,5.39,0,0,1,.12,1.17v0h5.84v-2.81h0v-3.58h28.74v3.58h0V237.16h0v-3.22H57.81v17.38h.46Z"/><rect class="cls-1" x="105.21" y="233.94" width="0.04" height="3.21"/><path class="cls-1" d="M64.65,248.39a3.74,3.74,0,0,1,.86,1.72,5.65,5.65,0,0,0,.12-1.19v-1.23a4.17,4.17,0,0,0-1-2.89A3.37,3.37,0,0,0,62,243.7a3.58,3.58,0,0,0-2.7,1.1,4,4,0,0,0-1,2.89v1.23a5,5,0,0,0,.13,1.18,3.69,3.69,0,0,1,.91-1.71,3.27,3.27,0,0,1,.87-.67,3.75,3.75,0,0,1,1.83-.44A3.38,3.38,0,0,1,64.65,248.39Z"/><polygon class="cls-1" points="100.21 237.16 100.21 237.16 105.21 237.16 105.21 233.94 100.21 233.94 100.21 237.16 100.21 237.16"/><polygon class="cls-1" points="100.21 248.51 100.21 244.93 71.47 244.93 71.47 248.51 71.47 248.51 71.47 248.51 100.21 248.51"/><polygon points="105.21 237.16 105.21 251.32 105.25 251.32 105.25 237.16 105.25 237.16 105.25 237.16 105.21 237.16"/><polygon points="100.21 248.51 100.21 248.51 100.21 248.51 71.47 248.51 71.47 251.32 105.21 251.32 105.21 237.16 100.21 237.16 100.21 248.51"/><rect x="105.21" y="237.15" width="0.04"/><rect x="71.47" y="248.51" width="28.74"/><rect x="100.21" y="237.15" width="5"/><path d="M65.51,250.11h0a3.74,3.74,0,0,0-.86-1.72A3.38,3.38,0,0,0,62,247.28a3.75,3.75,0,0,0-1.83.44,3.27,3.27,0,0,0-.87.67,3.69,3.69,0,0,0-.91,1.71,4.91,4.91,0,0,0-.13,1.18v0h7.36v0A5.39,5.39,0,0,0,65.51,250.11Z"/><path d="M64.65,248.39a3.74,3.74,0,0,1,.86,1.72h0a3.74,3.74,0,0,0-.86-1.72A3.38,3.38,0,0,0,62,247.28a3.75,3.75,0,0,0-1.83.44,3.75,3.75,0,0,1,1.83-.44A3.38,3.38,0,0,1,64.65,248.39Z"/><polygon class="cls-1" points="231.56 251.32 241.94 251.32 234.11 233.94 223.73 233.94 231.56 251.32"/><polygon class="cls-2" points="171.08 233.94 160.7 233.94 168.5 251.32 178.88 251.32 171.08 233.94"/><polygon points="223.73 233.94 171.08 233.94 178.88 251.32 231.56 251.32 223.73 233.94"/><rect class="cls-1" x="91.88" y="277.11" width="10.38" height="3.58"/><rect class="cls-2" x="34.09" y="277.11" width="10.38" height="3.58"/><rect x="44.47" y="277.11" width="47.4" height="3.58"/><polygon class="cls-1" points="240.2 277.11 229.82 277.11 231.44 280.69 241.81 280.69 240.2 277.11"/><polygon class="cls-2" points="166.74 277.11 168.34 280.69 178.72 280.69 177.12 277.11 166.74 277.11"/><polygon points="177.12 277.11 178.72 280.69 231.44 280.69 229.82 277.11 177.12 277.11"/></svg>