<svg xmlns="http://www.w3.org/2000/svg" viewBox="0 0 197.25 310"><g id="Calque_2" data-name="Calque 2"><g id="Calque_1-2" data-name="Calque 1"><path d="M189.45,181.29a124.81,124.81,0,0,1-1.13,17.06c-.48,3.76-.8,7.55-1.36,11.29a241,241,0,0,1-6.58,30.52c-1.39,4.83-2.67,9.69-4.41,14.41a111.6,111.6,0,0,1-10.73,21.75,75.36,75.36,0,0,1-11.84,13.93,62,62,0,0,1-9.57,7.93c-7.34,4.6-15.07,8.35-23.59,10.25a60.38,60.38,0,0,1-10.19,1.34,78.28,78.28,0,0,1-12.44,0c-3.29-.36-6.57-.83-9.84-1.38a78.9,78.9,0,0,1-29.22-11.09A76.65,76.65,0,0,1,42.21,283a105.11,105.11,0,0,1-11.72-15.88,80.5,80.5,0,0,1-7.55-16.64c-1.48-4.55-2.79-9.15-4.12-13.75-.86-3-1.78-5.89-2.38-8.9-.87-4.37-1.53-8.8-2.18-13.22-.47-3.19-.75-6.42-1.16-9.62a5.54,5.54,0,0,0-.56-1.68,122.69,122.69,0,0,1-8.23-19.75,101.83,101.83,0,0,1-3.14-12.78,31,31,0,0,1-.32-7.39,5.41,5.41,0,0,1,2.44-4.44,1.13,1.13,0,0,0,.55-1.1c0-3.83.1-7.67,0-11.49-.1-3.47-.43-6.93-.63-10.4-.39-6.45-.83-12.9-1.81-19.3A118,118,0,0,1,.39,89,91.65,91.65,0,0,1,5.22,67C8.91,56,15,46.51,22.09,37.53c2.77-3.51,5.59-7,8.28-10.55a62.68,62.68,0,0,0,3.49-5.43c.63-1.06,1.18-2.17,1.71-3.29a31.79,31.79,0,0,1,8.19-10.5A26.59,26.59,0,0,1,60.11,1.21,73.68,73.68,0,0,1,74,2C79,2.67,84,3.78,89,4.84a75.82,75.82,0,0,0,8.88,1.22,34.57,34.57,0,0,0,5.38-.13,4.08,4.08,0,0,0,1.54-.6c3.87-2,7.78-3.89,12.1-4.73a28.86,28.86,0,0,1,20.77,3.45,27.76,27.76,0,0,1,10,9.31c1,1.7,2.21,3.33,3.32,5a8.33,8.33,0,0,0,3.84,3.28,39.44,39.44,0,0,1,11.11,7.16,57.06,57.06,0,0,1,13.94,17.94A60.91,60.91,0,0,1,183,54.33a128.56,128.56,0,0,1,5.92,25.49,35.71,35.71,0,0,0,3.28,11.33,52.1,52.1,0,0,1,4.13,10.57,29.14,29.14,0,0,1,.88,6.63c0,3.67.15,7.36-.7,11-.81,3.41-1.62,6.83-2.61,10.2a64.06,64.06,0,0,0-1.64,8.32c-.78,5.17-1.61,10.34-2.3,15.52s-1.47,10.11-1.09,15.25c.23,3.19.39,6.38.56,9.57C189.5,179.21,189.45,180.25,189.45,181.29Zm-98.9-36.88c.39.69.69,1.21,1,1.73a27.6,27.6,0,0,1,2.79,19.48,30.32,30.32,0,0,1-10.51,17A36.63,36.63,0,0,1,60,191.26,35.28,35.28,0,0,1,36.21,183c-10.06-8.47-13.37-22.05-7.89-33.93a8.75,8.75,0,0,0,.33-1L24.48,148a4.06,4.06,0,0,0-3.92,2.49,70.56,70.56,0,0,0-4.15,12.72,25,25,0,0,0-.71,5.32,78.59,78.59,0,0,0,1,14.2,75.07,75.07,0,0,0,2.59,12.4c2.33,7,4.7,14,7.54,20.81,1.43,3.42,2.71,6.9,4.17,10.31,1.28,3,2.73,5.86,4.08,8.79a87.74,87.74,0,0,0,6.16,11.36,11,11,0,0,0,2.32,2.55c1.27,1,4.3.81,5.28-.79a18.89,18.89,0,0,0,1.5-3c.56-1.41,1-2.86,1.46-4.3a29.78,29.78,0,0,1,11.45-15.52c7.24-5.2,15.24-9,23.34-12.59a12.88,12.88,0,0,1,1.81-.62,13.62,13.62,0,0,1,5.91-.59,25.91,25.91,0,0,1,3.12.79,11.77,11.77,0,0,0,7.64-.24c1.34-.51,2.71-1,4.09-1.35a22,22,0,0,1,10.64-.62,28.31,28.31,0,0,1,6.71,2.52,104.53,104.53,0,0,1,9.65,5.76,64.87,64.87,0,0,1,13.48,11.24,12.84,12.84,0,0,1,3,5.1c.79,2.84,1.43,5.72,2.18,8.57a25.18,25.18,0,0,0,1.23,3.74,2.54,2.54,0,0,0,3.39,1.41,5,5,0,0,0,2-1.11,19.66,19.66,0,0,0,3-3.43c1.34-2.17,2.51-4.45,3.64-6.74a143.56,143.56,0,0,0,8-21.25,215.44,215.44,0,0,0,7.2-28.64,62.37,62.37,0,0,0,1-12.27A40.83,40.83,0,0,0,182,162.57c-.1-.26-.25-.51-.5-1a29,29,0,0,1-2.3,9.91c-3.53,8-9.55,13.37-17.53,16.62A37,37,0,0,1,137,189.32c-8-2.27-14.74-6.59-19.43-13.55-6.63-9.83-7.28-20.1-1.63-30.65.17-.31.33-.63.56-1.08C107.79,140.39,99.25,141.22,90.55,144.41Zm36.76-10.9c-.34,0-.69,0-1,0a29.64,29.64,0,0,1-7-.23,4.06,4.06,0,0,1-2.78-1.89,8.6,8.6,0,0,1-1.35-6.4,3.92,3.92,0,0,1,2.3-3.15,9.79,9.79,0,0,1,2.25-.76,94,94,0,0,1,12.86-1.27,121.52,121.52,0,0,1,18.87,1,43.8,43.8,0,0,1,6.25,1c7.4,2,12.66,9.61,13.32,15.52a1.23,1.23,0,0,0,.16.68c.88.93,1.8,1.84,2.88,2.92,0-.6,0-.91,0-1.22-.16-2.19-.28-4.38-.49-6.56-.3-3.18-.51-6.38-1-9.52A213.11,213.11,0,0,0,163,86.7a6.33,6.33,0,0,0-.36-.75c-.49,0-.93,0-1.36.1a31.92,31.92,0,0,1-12.34-.93,138.66,138.66,0,0,1-15.31-5.46,60.79,60.79,0,0,0-14.14-4.36,11.51,11.51,0,0,0-6.79.65c-1,.47-2.07.84-3.09,1.28q-4.9,2.08-9.79,4.19a75,75,0,0,1-16.41,4.69A78.42,78.42,0,0,1,65,87.48c-2.19-.12-4.38-.28-6.55-.54-3.25-.39-6.49-.82-9.72-1.36-2.48-.42-4.92-1.07-7.46-.73a9.06,9.06,0,0,0-2.56.55c-4.21,1.89-7.38,4.81-8.88,9.33a73.1,73.1,0,0,0-3.63,18.14c-.52,7.66-1.69,15.23-2.81,22.81-.34,2.32-.69,4.65-1,6.87L25,145c1.33,0,2.92,0,4.52,0a1.62,1.62,0,0,0,1.56-.81,31.3,31.3,0,0,1,6.35-6.8c.27-.22.52-.46,1-.88-.72,0-1.14.12-1.55.11a9.2,9.2,0,0,1-1.9-.12,2.91,2.91,0,0,1-2.4-3,7,7,0,0,1,2.23-5.13,11,11,0,0,1,4.57-2.52,142.6,142.6,0,0,1,14.34-2.71,158.72,158.72,0,0,1,15.86-1.33,77,77,0,0,1,12,.37c5.06.58,6.62,5.37,5.78,8.8a3,3,0,0,1-2.74,2.47c-1.18.11-2.39.06-3.58.08H79a37.24,37.24,0,0,1,9.59,8.14,36.22,36.22,0,0,1,15-3.74A32.89,32.89,0,0,1,118.77,141,39.09,39.09,0,0,1,127.31,133.51Zm18.49-1.88c-1.13.1-2.61.18-4.07.36-8.3,1-15.37,4.47-20.71,11a24.47,24.47,0,0,0-5.41,20.83,26.68,26.68,0,0,0,10,16.3c9.16,7.3,19.56,9.36,30.88,6.58a29.36,29.36,0,0,0,17.05-11.22,24.56,24.56,0,0,0,5-16.37,26.08,26.08,0,0,0-7.3-16.77C164.41,135.12,155.91,131.88,145.8,131.63ZM59.38,188.34a34.89,34.89,0,0,0,13.32-2.49,31.52,31.52,0,0,0,14.6-11.4A25.39,25.39,0,0,0,84.88,142c-5.78-6.11-13.06-9.12-21.36-9.74a33.87,33.87,0,0,0-12.77,1.43c-7.66,2.39-13.91,6.72-18.16,13.62a24.9,24.9,0,0,0-3.49,18.25,25.6,25.6,0,0,0,8.45,14.66C43.77,185.73,51.15,188.18,59.38,188.34Zm55.2,67.49c.09,2.65.12,4.93.27,7.2a18.82,18.82,0,0,0,2.3,8.59,4.75,4.75,0,0,0,2.54,2.23,16.11,16.11,0,0,0,9.07.51,8.79,8.79,0,0,0,5.24-3.29,34.49,34.49,0,0,0,4.45-8.17,43.86,43.86,0,0,0,2.83-21.14,8.62,8.62,0,0,0-4.08-6.69,90.23,90.23,0,0,0-15.15-8.15,62.39,62.39,0,0,0-6.53-2.3,11.17,11.17,0,0,0-6.48-.11c-1.34.39-2.73.6-4.1.88a13.29,13.29,0,0,1-6,0,17,17,0,0,0-9.33.39,58,58,0,0,0-15.26,7.32,20.84,20.84,0,0,0-6.58,7.49A11.16,11.16,0,0,0,66.24,245a53.48,53.48,0,0,0,.2,11.59,27.44,27.44,0,0,0,2.78,9,17.81,17.81,0,0,0,3.58,4.91c3.28,3.1,7.3,4.47,11.67,5a7.63,7.63,0,0,0,6-1.67,10.72,10.72,0,0,0,3.21-4,37,37,0,0,0,1.47-3.92c1.35-4.34,1.3-8.81,1.07-13.29a19.12,19.12,0,0,1-.06-2.27,1.4,1.4,0,0,1,1.42-1.48,9,9,0,0,1,2.14,0A26.1,26.1,0,0,0,111,248a17,17,0,0,1,2.22-.5,1.29,1.29,0,0,1,1.64,1.39,7.55,7.55,0,0,1,0,.83C114.74,251.9,114.65,254.05,114.58,255.83ZM11.83,194.26l.13-.12c-.59-4.38-1.31-8.75-1.75-13.14-.47-4.72-.68-9.46-1-14.19a3.87,3.87,0,0,0-.38-1.59A12.52,12.52,0,0,0,7.2,163c-1.59-1.78-2.62-.77-3.17.68a5.32,5.32,0,0,0-.16.69,12.27,12.27,0,0,0,0,4.52c.31,2,.65,4,1.08,6a76.62,76.62,0,0,0,6.2,18C11.33,193.38,11.59,193.82,11.83,194.26Z"/></g></g></svg>