<svg xmlns="http://www.w3.org/2000/svg" viewBox="0 0 209.55 304.45"><defs><style>.cls-1{fill:#f25151;}.cls-2{fill:#95f4b2;}.cls-3{fill:#EAE337;}</style></defs><g id="Calque_2" data-name="Calque 2"><g id="logo1"><path class="cls-1" d="M186.05,179.16c-.26,3.46-.55,8-1,12.45-.34,3.86-.7,7.73-1.26,11.57-.75,5-1.63,10-2.59,15a254.66,254.66,0,0,1-6.79,26.39,107.7,107.7,0,0,1-12.3,26.74A74.41,74.41,0,0,1,150.62,285a61.81,61.81,0,0,1-9.6,7.95,73.93,73.93,0,0,1-22.85,10,51.57,51.57,0,0,1-9.89,1.32c-2,.06-3.92.18-5.88.22a75.54,75.54,0,0,1-14.16-1.17,90.35,90.35,0,0,1-14.6-3.55,71.23,71.23,0,0,1-24.31-13.79A101.88,101.88,0,0,1,34,268.7a91,91,0,0,1-13.57-29c-1.33-4.75-2.71-9.49-4-14.26a86.56,86.56,0,0,1-2.1-11.55c-.43-3.3-.88-6.6-1.32-9.9a.5.5,0,0,1,0-.12c.18-2.47-.9-4.55-2-6.66a110.68,110.68,0,0,1-9.25-25.7A38.32,38.32,0,0,1,.75,160.86a5.42,5.42,0,0,1,2.44-4.7,1.13,1.13,0,0,0,.55-1.09c0-4.16-.05-8.32-.12-12.47,0-1.37-.19-2.74-.27-4.11-.26-4.43-.43-8.86-.79-13.28-.28-3.51-.8-7-1.21-10.51-.29-2.45-.55-4.9-.86-7.35A100.37,100.37,0,0,1,0,93.48a89.1,89.1,0,0,1,4.8-27.09C8.6,55.07,14.89,45.27,22.26,36.05c2.6-3.26,5.22-6.49,7.69-9.83a67.94,67.94,0,0,0,3.78-6.09c.69-1.19,1.25-2.44,1.9-3.65A30.6,30.6,0,0,1,46.4,5,24.91,24.91,0,0,1,57.8,1.3a57.88,57.88,0,0,1,12.55.45c4.13.53,8.23,1.11,12.3,2,2.83.6,5.66,1.23,8.52,1.73a31.63,31.63,0,0,0,10.18.36,4.78,4.78,0,0,0,1.52-.58,47.56,47.56,0,0,1,9.61-4.09c9.48-2.57,18.15-.82,26,5.08a23.68,23.68,0,0,1,5.59,5.84c1.31,2,2.63,3.9,4,5.85a8.31,8.31,0,0,0,3.85,3.31,39.22,39.22,0,0,1,11,7.12,57.81,57.81,0,0,1,13.56,17.46,59.75,59.75,0,0,1,3.85,9.72A135,135,0,0,1,184.24,71c.49,2.81.85,5.65,1.3,8.48a38.32,38.32,0,0,0,2.79,9.43c1.1,2.47,2.29,4.91,3.26,7.43,1.87,4.85,2.11,9.92,1.9,15.06s-1.65,10.28-3.08,15.28a72.78,72.78,0,0,0-1.79,8.86c-.58,3.83-1.17,7.66-1.73,11.5-.39,2.68-.7,5.36-1.09,8a52.82,52.82,0,0,0-.49,10c.08,1.65.21,3.29.3,4.94C185.75,172.7,185.87,175.4,186.05,179.16ZM28.24,145.25c-.55,0-.93-.07-1.31-.07l-3.3-.05a4.23,4.23,0,0,0-3.77,2.45,74.67,74.67,0,0,0-4,11.91A25.06,25.06,0,0,0,15,166a90.61,90.61,0,0,0,1.25,15,68.34,68.34,0,0,0,2.32,10.67c2.3,6.87,4.61,13.74,7.4,20.44,1.36,3.25,2.54,6.58,3.94,9.82,1.48,3.41,3.13,6.76,4.71,10.13a84.74,84.74,0,0,0,5.41,9.9,9.32,9.32,0,0,0,2.6,2.85,3.73,3.73,0,0,0,2.34.62A4,4,0,0,0,48.56,243c.63-1.39,1.14-2.83,1.63-4.27a47.2,47.2,0,0,1,3.28-7.92,30.42,30.42,0,0,1,9.27-9.72c6.85-4.86,14.42-8.41,22.05-11.81a16.25,16.25,0,0,1,6-1.35,14.23,14.23,0,0,1,4.72.86,11.46,11.46,0,0,0,7.6-.24c1.39-.54,2.81-1,4.25-1.39a22,22,0,0,1,9.77-.6,24.2,24.2,0,0,1,6.3,2.21,98.56,98.56,0,0,1,10.62,6.3,63,63,0,0,1,12.83,10.83,11.77,11.77,0,0,1,2.75,4.61c.82,2.9,1.45,5.85,2.21,8.77a20.81,20.81,0,0,0,1.21,3.54,2.8,2.8,0,0,0,3.87,1.41,5.19,5.19,0,0,0,1.68-1.05,22.23,22.23,0,0,0,3-3.48,65,65,0,0,0,3.43-6.3A125.08,125.08,0,0,0,171.18,218a254.35,254.35,0,0,0,8.71-32.32c.46-2.46.76-4.95,1.06-7.44a45.59,45.59,0,0,0,.05-8.82,38.57,38.57,0,0,0-2.19-10.07c-.13-.34-.32-.66-.49-1-.16.1-.21.12-.21.14-.13,1-.21,2-.37,3A28.25,28.25,0,0,1,170,177c-5.82,6-13,9.15-21.25,10.09a35.75,35.75,0,0,1-11.93-.67,34.75,34.75,0,0,1-19.75-11.77,28.11,28.11,0,0,1-6.79-19.32,27.22,27.22,0,0,1,3.57-12.55c.22-.39.42-.8.7-1.32a26.66,26.66,0,0,0-11.85-2.54,35.74,35.74,0,0,0-14,2.82,1.7,1.7,0,0,0,0,.29c.32.63.65,1.25,1,1.88a26.76,26.76,0,0,1,2.62,18.59,29.9,29.9,0,0,1-12.49,18.47,36.37,36.37,0,0,1-26.46,6.42,33.23,33.23,0,0,1-20.19-10,27.6,27.6,0,0,1-7.92-17.79,26.88,26.88,0,0,1,2.36-12.83C27.84,146.34,28,145.87,28.24,145.25ZM159.88,84.1c-.92.1-1.73.23-2.54.27a34.63,34.63,0,0,1-11.19-1.05,145.5,145.5,0,0,1-15-5.39c-4.55-1.85-9.1-3.6-14-4.28a11,11,0,0,0-6.22.53c-2.18,1-4.42,1.82-6.61,2.78-6.21,2.73-12.45,5.33-19.16,6.68a93.77,93.77,0,0,1-18.66,2.11,78.65,78.65,0,0,1-8.8-.59,126.44,126.44,0,0,1-12.54-1.89,12,12,0,0,0-7.19.32,14.67,14.67,0,0,0-8.74,8.71,72,72,0,0,0-3.83,18.48c-.24,2.93-.41,5.87-.77,8.79-.49,4-1.14,7.91-1.72,11.86-.39,2.67-.78,5.35-1.18,8a1.12,1.12,0,0,0,.47,1.21c.57.45,1,1,1.59,1.53a1.22,1.22,0,0,0,.71.29c1.45.08,2.9.08,4.35.17a1.67,1.67,0,0,0,1.65-.85,32.25,32.25,0,0,1,6.87-7.22c.23-.18.44-.4.84-.77-.59,0-.92,0-1.25.07a6.72,6.72,0,0,1-2.68,0A2.72,2.72,0,0,1,32,131.07a6.62,6.62,0,0,1,2.42-5.15,11.17,11.17,0,0,1,4.59-2.29c.88-.19,1.75-.42,2.64-.58,4.32-.75,8.63-1.59,13-2.2,3.1-.43,6.24-.59,9.37-.82a97.22,97.22,0,0,1,15.64.07A6.14,6.14,0,0,1,85,123.78a7.57,7.57,0,0,1,.58,4.25,2.93,2.93,0,0,1-2.81,2.83,27.54,27.54,0,0,1-3.52,0,9.63,9.63,0,0,0-2.4,0c.05.2.05.3.1.34a8.18,8.18,0,0,0,.69.45,31.66,31.66,0,0,1,8.43,6.9c.67.77.69.76,1.7.31a34.37,34.37,0,0,1,18.56-3,27.16,27.16,0,0,1,9.9,2.75c.09,0,.23,0,.38,0,.66-.71,1.3-1.45,2-2.14s1.42-1.36,2.17-2,1.61-1.25,2.44-1.84,1.59-1.05,2.39-1.58l-.09-.27c-.49,0-1,0-1.46.08a28.12,28.12,0,0,1-6.92-.17,4,4,0,0,1-2.88-2,8.64,8.64,0,0,1-1.21-5.41,4.11,4.11,0,0,1,2.5-3.68,13.28,13.28,0,0,1,4.34-.93c2.84-.32,5.7-.53,8.55-.79a86.14,86.14,0,0,1,13.05.15c2.81.18,5.62.52,8.42.88a25.89,25.89,0,0,1,5.29,1c6.23,2.18,10.06,6.72,12,12.9a16.62,16.62,0,0,0,.82,3,12.08,12.08,0,0,0,2.19,2.28,6.68,6.68,0,0,0,.78.57C170.59,119.75,166.08,101.86,159.88,84.1ZM145.35,184.83c1.64-.19,3.8-.3,5.92-.69a30.51,30.51,0,0,0,16.91-8.86,25.17,25.17,0,0,0,2.68-32.38,30.92,30.92,0,0,0-14.64-11.4,34.52,34.52,0,0,0-18.49-1.91,31,31,0,0,0-16.35,7.75,25.3,25.3,0,0,0-3,34.94C125.16,180.75,134.21,184.46,145.35,184.83Zm-89.55.31a37.07,37.07,0,0,0,10.13-.73,32,32,0,0,0,18.93-11.7,25.21,25.21,0,0,0,5.35-19.54,24.44,24.44,0,0,0-5.62-12.5c-5.88-7-13.54-10.38-22.5-11A33.65,33.65,0,0,0,44.72,133c-7,3.41-12.31,8.5-15.2,15.84a24,24,0,0,0,.25,19,27.61,27.61,0,0,0,13.58,14A30.87,30.87,0,0,0,55.8,185.14Zm56.42,66.44c.11,2.68.15,5,.32,7.31a20.31,20.31,0,0,0,1.93,7.58,6.12,6.12,0,0,0,4.66,3.38,17.8,17.8,0,0,0,6.9,0,8.29,8.29,0,0,0,4.75-2.39,22.28,22.28,0,0,0,3.42-4.91,41.82,41.82,0,0,0,4.73-15.9c.21-2.85.06-5.72,0-8.59a8.78,8.78,0,0,0-.3-2,8.17,8.17,0,0,0-3.36-4.94,86.69,86.69,0,0,0-14.07-7.82,41,41,0,0,0-8-2.94,11.41,11.41,0,0,0-5-.29c-1.26.29-2.53.53-3.79.83a17.1,17.1,0,0,1-8.26.12,13.23,13.23,0,0,0-3.27-.29A19.37,19.37,0,0,0,87,221.87a66.75,66.75,0,0,0-12.75,6A21.53,21.53,0,0,0,67,235a12.52,12.52,0,0,0-2.23,5.38,31.79,31.79,0,0,0-.27,4.46c.06,2.43.23,4.86.44,7.27a24.36,24.36,0,0,0,2.95,9.36A17.3,17.3,0,0,0,72,266.56a19.93,19.93,0,0,0,9,4.07,10.68,10.68,0,0,0,4.9.09,9.56,9.56,0,0,0,6-5,23,23,0,0,0,2.61-8.5,41.83,41.83,0,0,0,.08-9.75,6.18,6.18,0,0,1,0-1.29c.08-1,.5-1.45,1.47-1.48a20.59,20.59,0,0,1,2.94.09,24,24,0,0,0,7.37-.26c1.61-.34,3.2-.77,4.81-1.11.87-.18,1.35.22,1.4,1.1,0,.43,0,.86,0,1.29C112.4,247.87,112.3,249.91,112.22,251.58ZM11.52,191.34l.24-.09a6.26,6.26,0,0,0,0-.75c-.62-4.58-1.36-9.15-1.85-13.74-.44-4.13-.66-8.29-.89-12.43a5,5,0,0,0-.93-3c-.34-.43-.65-.88-1-1.29-.56-.62-1.16-1.26-2.1-1s-1.2,1.06-1.49,1.84a2,2,0,0,0-.06.35,12.71,12.71,0,0,0-.11,4.56,73.8,73.8,0,0,0,2.28,10.8,71.81,71.81,0,0,0,5.23,13.57C11,190.6,11.29,191,11.52,191.34Z"/><path class="cls-2" d="M202.05,179.16c-.26,3.46-.55,8-1,12.45-.34,3.86-.7,7.73-1.26,11.57-.75,5-1.63,10-2.59,15a254.66,254.66,0,0,1-6.79,26.39,107.7,107.7,0,0,1-12.3,26.74A74.41,74.41,0,0,1,166.62,285a61.81,61.81,0,0,1-9.6,7.95,73.93,73.93,0,0,1-22.85,10,51.57,51.57,0,0,1-9.89,1.32c-2,.06-3.92.18-5.88.22a75.54,75.54,0,0,1-14.16-1.17,90.35,90.35,0,0,1-14.6-3.55,71.23,71.23,0,0,1-24.31-13.79A101.88,101.88,0,0,1,50,268.7a91,91,0,0,1-13.57-29c-1.33-4.75-2.71-9.49-4-14.26a86.56,86.56,0,0,1-2.1-11.55c-.43-3.3-.88-6.6-1.32-9.9a.5.5,0,0,1,0-.12c.18-2.47-.9-4.55-2-6.66a110.68,110.68,0,0,1-9.25-25.7,38.32,38.32,0,0,1-1.07-10.61,5.42,5.42,0,0,1,2.44-4.7,1.13,1.13,0,0,0,.55-1.09c0-4.16,0-8.32-.12-12.47,0-1.37-.19-2.74-.27-4.11-.26-4.43-.43-8.86-.79-13.28-.28-3.51-.8-7-1.21-10.51-.29-2.45-.55-4.9-.86-7.35A100.37,100.37,0,0,1,16,93.48a89.1,89.1,0,0,1,4.8-27.09C24.6,55.07,30.89,45.27,38.26,36.05c2.6-3.26,5.22-6.49,7.69-9.83a67.94,67.94,0,0,0,3.78-6.09c.69-1.19,1.25-2.44,1.9-3.65A30.6,30.6,0,0,1,62.4,5,24.91,24.91,0,0,1,73.8,1.3a57.88,57.88,0,0,1,12.55.45c4.13.53,8.23,1.11,12.3,2,2.83.6,5.66,1.23,8.52,1.73a31.63,31.63,0,0,0,10.18.36,4.78,4.78,0,0,0,1.52-.58,47.56,47.56,0,0,1,9.61-4.09c9.48-2.57,18.15-.82,26,5.08a23.68,23.68,0,0,1,5.59,5.84c1.31,2,2.63,3.9,4,5.85a8.31,8.31,0,0,0,3.85,3.31,39.22,39.22,0,0,1,11,7.12,57.81,57.81,0,0,1,13.56,17.46,59.75,59.75,0,0,1,3.85,9.72A135,135,0,0,1,200.24,71c.49,2.81.85,5.65,1.3,8.48a38.32,38.32,0,0,0,2.79,9.43c1.1,2.47,2.29,4.91,3.26,7.43,1.87,4.85,2.11,9.92,1.9,15.06s-1.65,10.28-3.08,15.28a72.78,72.78,0,0,0-1.79,8.86c-.58,3.83-1.17,7.66-1.73,11.5-.39,2.68-.7,5.36-1.09,8a52.82,52.82,0,0,0-.49,10c.08,1.65.21,3.29.3,4.94C201.75,172.7,201.87,175.4,202.05,179.16ZM44.24,145.25c-.55,0-.93-.07-1.31-.07l-3.3-.05a4.23,4.23,0,0,0-3.77,2.45,74.67,74.67,0,0,0-4,11.91A25.06,25.06,0,0,0,31,166a90.61,90.61,0,0,0,1.25,15,68.34,68.34,0,0,0,2.32,10.67c2.3,6.87,4.61,13.74,7.4,20.44,1.36,3.25,2.54,6.58,3.94,9.82,1.48,3.41,3.13,6.76,4.71,10.13a84.74,84.74,0,0,0,5.41,9.9,9.32,9.32,0,0,0,2.6,2.85,3.73,3.73,0,0,0,2.34.62A4,4,0,0,0,64.56,243c.63-1.39,1.14-2.83,1.63-4.27a47.2,47.2,0,0,1,3.28-7.92,30.42,30.42,0,0,1,9.27-9.72c6.85-4.86,14.42-8.41,22.05-11.81a16.25,16.25,0,0,1,6-1.35,14.23,14.23,0,0,1,4.72.86,11.46,11.46,0,0,0,7.6-.24c1.39-.54,2.81-1,4.25-1.39a22,22,0,0,1,9.77-.6,24.2,24.2,0,0,1,6.3,2.21,98.56,98.56,0,0,1,10.62,6.3,63,63,0,0,1,12.83,10.83,11.77,11.77,0,0,1,2.75,4.61c.82,2.9,1.45,5.85,2.21,8.77a20.81,20.81,0,0,0,1.21,3.54,2.8,2.8,0,0,0,3.87,1.41,5.19,5.19,0,0,0,1.68-1.05,22.23,22.23,0,0,0,3-3.48,65,65,0,0,0,3.43-6.3A125.08,125.08,0,0,0,187.18,218a254.35,254.35,0,0,0,8.71-32.32c.46-2.46.76-4.95,1.06-7.44a45.59,45.59,0,0,0,.05-8.82,38.57,38.57,0,0,0-2.19-10.07c-.13-.34-.32-.66-.49-1-.16.1-.21.12-.21.14-.13,1-.21,2-.37,3A28.25,28.25,0,0,1,186,177c-5.82,6-13,9.15-21.25,10.09a35.75,35.75,0,0,1-11.93-.67,34.75,34.75,0,0,1-19.75-11.77,28.11,28.11,0,0,1-6.79-19.32,27.22,27.22,0,0,1,3.57-12.55c.22-.39.42-.8.7-1.32a26.66,26.66,0,0,0-11.85-2.54,35.74,35.74,0,0,0-14,2.82,1.7,1.7,0,0,0,0,.29c.32.63.65,1.25,1,1.88a26.76,26.76,0,0,1,2.62,18.59,29.9,29.9,0,0,1-12.49,18.47,36.37,36.37,0,0,1-26.46,6.42,33.23,33.23,0,0,1-20.19-10,27.6,27.6,0,0,1-7.92-17.79,26.88,26.88,0,0,1,2.36-12.83C43.84,146.34,44,145.87,44.24,145.25ZM175.88,84.1c-.92.1-1.73.23-2.54.27a34.63,34.63,0,0,1-11.19-1.05,145.5,145.5,0,0,1-15-5.39c-4.55-1.85-9.1-3.6-14-4.28a11,11,0,0,0-6.22.53c-2.18,1-4.42,1.82-6.61,2.78-6.21,2.73-12.45,5.33-19.16,6.68a93.77,93.77,0,0,1-18.66,2.11,78.65,78.65,0,0,1-8.8-.59,126.44,126.44,0,0,1-12.54-1.89,12,12,0,0,0-7.19.32,14.67,14.67,0,0,0-8.74,8.71,72,72,0,0,0-3.83,18.48c-.24,2.93-.41,5.87-.77,8.79-.49,4-1.14,7.91-1.72,11.86-.39,2.67-.78,5.35-1.18,8a1.12,1.12,0,0,0,.47,1.21c.57.45,1,1,1.59,1.53a1.22,1.22,0,0,0,.71.29c1.45.08,2.9.08,4.35.17a1.67,1.67,0,0,0,1.65-.85,32.25,32.25,0,0,1,6.87-7.22c.23-.18.44-.4.84-.77-.59,0-.92,0-1.25.07a6.72,6.72,0,0,1-2.68,0A2.72,2.72,0,0,1,48,131.07a6.62,6.62,0,0,1,2.42-5.15,11.17,11.17,0,0,1,4.59-2.29c.88-.19,1.75-.42,2.64-.58,4.32-.75,8.63-1.59,13-2.2,3.1-.43,6.24-.59,9.37-.82a97.22,97.22,0,0,1,15.64.07,6.14,6.14,0,0,1,5.36,3.68,7.57,7.57,0,0,1,.58,4.25,2.93,2.93,0,0,1-2.81,2.83,27.54,27.54,0,0,1-3.52,0,9.63,9.63,0,0,0-2.4,0c.05.2.05.3.1.34a8.18,8.18,0,0,0,.69.45,31.66,31.66,0,0,1,8.43,6.9c.67.77.69.76,1.7.31a34.37,34.37,0,0,1,18.56-3,27.16,27.16,0,0,1,9.9,2.75c.09,0,.23,0,.38,0,.66-.71,1.3-1.45,2-2.14s1.42-1.36,2.17-2,1.61-1.25,2.44-1.84,1.59-1.05,2.39-1.58l-.09-.27c-.49,0-1,0-1.46.08a28.12,28.12,0,0,1-6.92-.17,4,4,0,0,1-2.88-2,8.64,8.64,0,0,1-1.21-5.41,4.11,4.11,0,0,1,2.5-3.68,13.28,13.28,0,0,1,4.34-.93c2.84-.32,5.7-.53,8.55-.79a86.14,86.14,0,0,1,13.05.15c2.81.18,5.62.52,8.42.88a25.89,25.89,0,0,1,5.29,1c6.23,2.18,10.06,6.72,12,12.9a16.62,16.62,0,0,0,.82,3,12.08,12.08,0,0,0,2.19,2.28,6.68,6.68,0,0,0,.78.57C186.59,119.75,182.08,101.86,175.88,84.1ZM161.35,184.83c1.64-.19,3.8-.3,5.92-.69a30.51,30.51,0,0,0,16.91-8.86,25.17,25.17,0,0,0,2.68-32.38,30.92,30.92,0,0,0-14.64-11.4,34.52,34.52,0,0,0-18.49-1.91,31,31,0,0,0-16.35,7.75,25.3,25.3,0,0,0-3,34.94C141.16,180.75,150.21,184.46,161.35,184.83Zm-89.55.31a37.07,37.07,0,0,0,10.13-.73,32,32,0,0,0,18.93-11.7,25.21,25.21,0,0,0,5.35-19.54,24.44,24.44,0,0,0-5.62-12.5c-5.88-7-13.54-10.38-22.5-11A33.65,33.65,0,0,0,60.72,133c-7,3.41-12.31,8.5-15.2,15.84a24,24,0,0,0,.25,19,27.61,27.61,0,0,0,13.58,14A30.87,30.87,0,0,0,71.8,185.14Zm56.42,66.44c.11,2.68.15,5,.32,7.31a20.31,20.31,0,0,0,1.93,7.58,6.12,6.12,0,0,0,4.66,3.38,17.8,17.8,0,0,0,6.9,0,8.29,8.29,0,0,0,4.75-2.39,22.28,22.28,0,0,0,3.42-4.91,41.82,41.82,0,0,0,4.73-15.9c.21-2.85.06-5.72,0-8.59a8.78,8.78,0,0,0-.3-2,8.17,8.17,0,0,0-3.36-4.94,86.69,86.69,0,0,0-14.07-7.82,41,41,0,0,0-8-2.94,11.41,11.41,0,0,0-5-.29c-1.26.29-2.53.53-3.79.83a17.1,17.1,0,0,1-8.26.12,13.23,13.23,0,0,0-3.27-.29,19.37,19.37,0,0,0-5.88,1.06,66.75,66.75,0,0,0-12.75,6A21.53,21.53,0,0,0,83,235a12.52,12.52,0,0,0-2.23,5.38,31.79,31.79,0,0,0-.27,4.46c.06,2.43.23,4.86.44,7.27a24.36,24.36,0,0,0,2.95,9.36A17.3,17.3,0,0,0,88,266.56a19.93,19.93,0,0,0,9,4.07,10.68,10.68,0,0,0,4.9.09,9.56,9.56,0,0,0,6-5,23,23,0,0,0,2.61-8.5,41.83,41.83,0,0,0,.08-9.75,6.18,6.18,0,0,1,0-1.29c.08-1,.5-1.45,1.47-1.48a20.59,20.59,0,0,1,2.94.09,24,24,0,0,0,7.37-.26c1.61-.34,3.2-.77,4.81-1.11.87-.18,1.35.22,1.4,1.1,0,.43,0,.86,0,1.29C128.4,247.87,128.3,249.91,128.22,251.58ZM27.52,191.34l.24-.09a6.26,6.26,0,0,0,0-.75c-.62-4.58-1.36-9.15-1.85-13.74-.44-4.13-.66-8.29-.89-12.43a5,5,0,0,0-.93-3c-.34-.43-.65-.88-1-1.29-.56-.62-1.16-1.26-2.1-1s-1.2,1.06-1.49,1.84a2,2,0,0,0-.06.35,12.71,12.71,0,0,0-.11,4.56,73.8,73.8,0,0,0,2.28,10.8,71.81,71.81,0,0,0,5.23,13.57C27,190.6,27.29,191,27.52,191.34Z"/><path class="cls-3" d="M194.05,179.16c-.26,3.46-.55,8-1,12.45-.34,3.86-.7,7.73-1.26,11.57-.75,5-1.63,10-2.59,15a254.66,254.66,0,0,1-6.79,26.39,107.7,107.7,0,0,1-12.3,26.74A74.41,74.41,0,0,1,158.62,285a61.81,61.81,0,0,1-9.6,7.95,73.93,73.93,0,0,1-22.85,10,51.57,51.57,0,0,1-9.89,1.32c-2,.06-3.92.18-5.88.22a75.54,75.54,0,0,1-14.16-1.17,90.35,90.35,0,0,1-14.6-3.55,71.23,71.23,0,0,1-24.31-13.79A101.88,101.88,0,0,1,42,268.7a91,91,0,0,1-13.57-29c-1.33-4.75-2.71-9.49-4-14.26a86.56,86.56,0,0,1-2.1-11.55c-.43-3.3-.88-6.6-1.32-9.9a.5.5,0,0,1,0-.12c.18-2.47-.9-4.55-2-6.66a110.68,110.68,0,0,1-9.25-25.7,38.32,38.32,0,0,1-1.07-10.61,5.42,5.42,0,0,1,2.44-4.7,1.13,1.13,0,0,0,.55-1.09c0-4.16-.05-8.32-.12-12.47,0-1.37-.19-2.74-.27-4.11-.26-4.43-.43-8.86-.79-13.28-.28-3.51-.8-7-1.21-10.51-.29-2.45-.55-4.9-.86-7.35A100.37,100.37,0,0,1,8,93.48a89.1,89.1,0,0,1,4.8-27.09C16.6,55.07,22.89,45.27,30.26,36.05c2.6-3.26,5.22-6.49,7.69-9.83a67.94,67.94,0,0,0,3.78-6.09c.69-1.19,1.25-2.44,1.9-3.65A30.6,30.6,0,0,1,54.4,5,24.91,24.91,0,0,1,65.8,1.3a57.88,57.88,0,0,1,12.55.45c4.13.53,8.23,1.11,12.3,2,2.83.6,5.66,1.23,8.52,1.73a31.63,31.63,0,0,0,10.18.36,4.78,4.78,0,0,0,1.52-.58,47.56,47.56,0,0,1,9.61-4.09c9.48-2.57,18.15-.82,26,5.08a23.68,23.68,0,0,1,5.59,5.84c1.31,2,2.63,3.9,4,5.85a8.31,8.31,0,0,0,3.85,3.31,39.22,39.22,0,0,1,11,7.12,57.81,57.81,0,0,1,13.56,17.46,59.75,59.75,0,0,1,3.85,9.72A135,135,0,0,1,192.24,71c.49,2.81.85,5.65,1.3,8.48a38.32,38.32,0,0,0,2.79,9.43c1.1,2.47,2.29,4.91,3.26,7.43,1.87,4.85,2.11,9.92,1.9,15.06s-1.65,10.28-3.08,15.28a72.78,72.78,0,0,0-1.79,8.86c-.58,3.83-1.17,7.66-1.73,11.5-.39,2.68-.7,5.36-1.09,8a52.82,52.82,0,0,0-.49,10c.08,1.65.21,3.29.3,4.94C193.75,172.7,193.87,175.4,194.05,179.16ZM36.24,145.25c-.55,0-.93-.07-1.31-.07l-3.3-.05a4.23,4.23,0,0,0-3.77,2.45,74.67,74.67,0,0,0-4,11.91A25.06,25.06,0,0,0,23,166a90.61,90.61,0,0,0,1.25,15,68.34,68.34,0,0,0,2.32,10.67c2.3,6.87,4.61,13.74,7.4,20.44,1.36,3.25,2.54,6.58,3.94,9.82,1.48,3.41,3.13,6.76,4.71,10.13a84.74,84.74,0,0,0,5.41,9.9,9.32,9.32,0,0,0,2.6,2.85,3.73,3.73,0,0,0,2.34.62A4,4,0,0,0,56.56,243c.63-1.39,1.14-2.83,1.63-4.27a47.2,47.2,0,0,1,3.28-7.92,30.42,30.42,0,0,1,9.27-9.72c6.85-4.86,14.42-8.41,22.05-11.81a16.25,16.25,0,0,1,6-1.35,14.23,14.23,0,0,1,4.72.86,11.46,11.46,0,0,0,7.6-.24c1.39-.54,2.81-1,4.25-1.39a22,22,0,0,1,9.77-.6,24.2,24.2,0,0,1,6.3,2.21,98.56,98.56,0,0,1,10.62,6.3,63,63,0,0,1,12.83,10.83,11.77,11.77,0,0,1,2.75,4.61c.82,2.9,1.45,5.85,2.21,8.77a20.81,20.81,0,0,0,1.21,3.54,2.8,2.8,0,0,0,3.87,1.41,5.19,5.19,0,0,0,1.68-1.05,22.23,22.23,0,0,0,3-3.48,65,65,0,0,0,3.43-6.3A125.08,125.08,0,0,0,179.18,218a254.35,254.35,0,0,0,8.71-32.32c.46-2.46.76-4.95,1.06-7.44a45.59,45.59,0,0,0,.05-8.82,38.57,38.57,0,0,0-2.19-10.07c-.13-.34-.32-.66-.49-1-.16.1-.21.12-.21.14-.13,1-.21,2-.37,3A28.25,28.25,0,0,1,178,177c-5.82,6-13,9.15-21.25,10.09a35.75,35.75,0,0,1-11.93-.67,34.75,34.75,0,0,1-19.75-11.77,28.11,28.11,0,0,1-6.79-19.32,27.22,27.22,0,0,1,3.57-12.55c.22-.39.42-.8.7-1.32a26.66,26.66,0,0,0-11.85-2.54,35.74,35.74,0,0,0-14,2.82,1.7,1.7,0,0,0,0,.29c.32.63.65,1.25,1,1.88a26.76,26.76,0,0,1,2.62,18.59,29.9,29.9,0,0,1-12.49,18.47,36.37,36.37,0,0,1-26.46,6.42,33.23,33.23,0,0,1-20.19-10,27.6,27.6,0,0,1-7.92-17.79,26.88,26.88,0,0,1,2.36-12.83C35.84,146.34,36,145.87,36.24,145.25ZM167.88,84.1c-.92.1-1.73.23-2.54.27a34.63,34.63,0,0,1-11.19-1.05,145.5,145.5,0,0,1-15-5.39c-4.55-1.85-9.1-3.6-14-4.28a11,11,0,0,0-6.22.53c-2.18,1-4.42,1.82-6.61,2.78-6.21,2.73-12.45,5.33-19.16,6.68a93.77,93.77,0,0,1-18.66,2.11,78.65,78.65,0,0,1-8.8-.59,126.44,126.44,0,0,1-12.54-1.89,12,12,0,0,0-7.19.32,14.67,14.67,0,0,0-8.74,8.71,72,72,0,0,0-3.83,18.48c-.24,2.93-.41,5.87-.77,8.79-.49,4-1.14,7.91-1.72,11.86-.39,2.67-.78,5.35-1.18,8a1.12,1.12,0,0,0,.47,1.21c.57.45,1,1,1.59,1.53a1.22,1.22,0,0,0,.71.29c1.45.08,2.9.08,4.35.17a1.67,1.67,0,0,0,1.65-.85,32.25,32.25,0,0,1,6.87-7.22c.23-.18.44-.4.84-.77-.59,0-.92,0-1.25.07a6.72,6.72,0,0,1-2.68,0A2.72,2.72,0,0,1,40,131.07a6.62,6.62,0,0,1,2.42-5.15,11.17,11.17,0,0,1,4.59-2.29c.88-.19,1.75-.42,2.64-.58,4.32-.75,8.63-1.59,13-2.2,3.1-.43,6.24-.59,9.37-.82a97.22,97.22,0,0,1,15.64.07A6.14,6.14,0,0,1,93,123.78a7.57,7.57,0,0,1,.58,4.25,2.93,2.93,0,0,1-2.81,2.83,27.54,27.54,0,0,1-3.52,0,9.63,9.63,0,0,0-2.4,0c.05.2.05.3.1.34a8.18,8.18,0,0,0,.69.45,31.66,31.66,0,0,1,8.43,6.9c.67.77.69.76,1.7.31a34.37,34.37,0,0,1,18.56-3,27.16,27.16,0,0,1,9.9,2.75c.09,0,.23,0,.38,0,.66-.71,1.3-1.45,2-2.14s1.42-1.36,2.17-2,1.61-1.25,2.44-1.84,1.59-1.05,2.39-1.58l-.09-.27c-.49,0-1,0-1.46.08a28.12,28.12,0,0,1-6.92-.17,4,4,0,0,1-2.88-2,8.64,8.64,0,0,1-1.21-5.41,4.11,4.11,0,0,1,2.5-3.68,13.28,13.28,0,0,1,4.34-.93c2.84-.32,5.7-.53,8.55-.79a86.14,86.14,0,0,1,13.05.15c2.81.18,5.62.52,8.42.88a25.89,25.89,0,0,1,5.29,1c6.23,2.18,10.06,6.72,12,12.9a16.62,16.62,0,0,0,.82,3,12.08,12.08,0,0,0,2.19,2.28,6.68,6.68,0,0,0,.78.57C178.59,119.75,174.08,101.86,167.88,84.1ZM153.35,184.83c1.64-.19,3.8-.3,5.92-.69a30.51,30.51,0,0,0,16.91-8.86,25.17,25.17,0,0,0,2.68-32.38,30.92,30.92,0,0,0-14.64-11.4,34.52,34.52,0,0,0-18.49-1.91,31,31,0,0,0-16.35,7.75,25.3,25.3,0,0,0-3,34.94C133.16,180.75,142.21,184.46,153.35,184.83Zm-89.55.31a37.07,37.07,0,0,0,10.13-.73,32,32,0,0,0,18.93-11.7,25.21,25.21,0,0,0,5.35-19.54,24.44,24.44,0,0,0-5.62-12.5c-5.88-7-13.54-10.38-22.5-11A33.65,33.65,0,0,0,52.72,133c-7,3.41-12.31,8.5-15.2,15.84a24,24,0,0,0,.25,19,27.61,27.61,0,0,0,13.58,14A30.87,30.87,0,0,0,63.8,185.14Zm56.42,66.44c.11,2.68.15,5,.32,7.31a20.31,20.31,0,0,0,1.93,7.58,6.12,6.12,0,0,0,4.66,3.38,17.8,17.8,0,0,0,6.9,0,8.29,8.29,0,0,0,4.75-2.39,22.28,22.28,0,0,0,3.42-4.91,41.82,41.82,0,0,0,4.73-15.9c.21-2.85.06-5.72,0-8.59a8.78,8.78,0,0,0-.3-2,8.17,8.17,0,0,0-3.36-4.94,86.69,86.69,0,0,0-14.07-7.82,41,41,0,0,0-8-2.94,11.41,11.41,0,0,0-5-.29c-1.26.29-2.53.53-3.79.83a17.1,17.1,0,0,1-8.26.12,13.23,13.23,0,0,0-3.27-.29A19.37,19.37,0,0,0,95,221.87a66.75,66.75,0,0,0-12.75,6A21.53,21.53,0,0,0,75,235a12.52,12.52,0,0,0-2.23,5.38,31.79,31.79,0,0,0-.27,4.46c.06,2.43.23,4.86.44,7.27a24.36,24.36,0,0,0,2.95,9.36A17.3,17.3,0,0,0,80,266.56a19.93,19.93,0,0,0,9,4.07,10.68,10.68,0,0,0,4.9.09,9.56,9.56,0,0,0,6-5,23,23,0,0,0,2.61-8.5,41.83,41.83,0,0,0,.08-9.75,6.18,6.18,0,0,1,0-1.29c.08-1,.5-1.45,1.47-1.48a20.59,20.59,0,0,1,2.94.09,24,24,0,0,0,7.37-.26c1.61-.34,3.2-.77,4.81-1.11.87-.18,1.35.22,1.4,1.1,0,.43,0,.86,0,1.29C120.4,247.87,120.3,249.91,120.22,251.58ZM19.52,191.34l.24-.09a6.26,6.26,0,0,0,0-.75c-.62-4.58-1.36-9.15-1.85-13.74-.44-4.13-.66-8.29-.89-12.43a5,5,0,0,0-.93-3c-.34-.43-.65-.88-1-1.29-.56-.62-1.16-1.26-2.1-1s-1.2,1.06-1.49,1.84a2,2,0,0,0-.06.35,12.71,12.71,0,0,0-.11,4.56,73.8,73.8,0,0,0,2.28,10.8,71.81,71.81,0,0,0,5.23,13.57C19,190.6,19.29,191,19.52,191.34Z"/></g></g></svg>